<?xml version="1.0" encoding="utf-8"?>
<!-- Generator: Adobe Illustrator 25.3.1, SVG Export Plug-In . SVG Version: 6.00 Build 0)  -->
<svg version="1.1" id="Layer_1" xmlns="http://www.w3.org/2000/svg" xmlns:xlink="http://www.w3.org/1999/xlink" x="0px" y="0px"
	 viewBox="0 0 1920 1080" style="enable-background:new 0 0 1920 1080;" xml:space="preserve">
<style type="text/css">
	.st0{fill:none;}
	.st1{clip-path:url(#SVGID_2_);enable-background:new    ;}
	.st2{stroke:#000000;stroke-width:3;stroke-miterlimit:10;}
	.st3{fill:none;stroke:#007F00;stroke-width:3;stroke-miterlimit:10;}
	.st4{fill:none;stroke:#0000FF;stroke-width:3;stroke-miterlimit:10;}
	.st5{fill:none;stroke:#ED1C24;stroke-width:3;stroke-miterlimit:10;}
	.st6{opacity:0.81;fill:#ED1C24;enable-background:new    ;}
	.st7{fill:#FFFFFF;}
	.st8{fill:#0037FF;stroke:#00FF07;stroke-width:2;stroke-miterlimit:10;}
	.st9{fill:#0037FF;stroke:#00FF07;stroke-width:2;}
	.st10{fill:none;stroke:#FBB03B;stroke-width:3;stroke-miterlimit:10;}
	.st11{fill:none;stroke:#000000;stroke-width:3;stroke-miterlimit:10;}
	.st12{fill:none;stroke:#FF0000;stroke-width:3;stroke-miterlimit:10;}
	.st13{fill:none;stroke:#FF2222;stroke-width:3;stroke-miterlimit:10;}
	.st14{fill:#FF0000;stroke:#FF0000;stroke-width:3;stroke-miterlimit:10;}
	.st15{fill:none;stroke:#1800FF;stroke-width:3;stroke-miterlimit:10;}
</style>
<g id="Layer_1_1_">
	<g id="shape240-193">
		<rect x="617" y="369.7" class="st0" width="687.4" height="337.2"/>
		<g>
			<g>
				<defs>
					<rect id="SVGID_1_" x="617" y="369.7" width="687.4" height="337.2"/>
				</defs>
				<clipPath id="SVGID_2_">
					<use xlink:href="#SVGID_1_"  style="overflow:visible;"/>
				</clipPath>
				<g transform="matrix(1 0 0 1 0 0)" class="st1">
					
						<image style="overflow:visible;enable-background:new    ;" width="2045" height="1444" xlink:href="81ACEA490406E89C.jpeg"  transform="matrix(0.3422 0 0 0.3422 610.5452 292.7427)">
					</image>
				</g>
			</g>
		</g>
		<rect x="617" y="369.7" class="st0" width="687.4" height="337.2"/>
	</g>
</g>
<g id="Steppers">
	<g id="X">
		<path class="st2" d="M1249,393c0-46,0-92,0-138"/>
		<line class="st3" x1="1237.9" y1="393" x2="1237.9" y2="255"/>
		<line class="st4" x1="1227.7" y1="393" x2="1227.7" y2="255"/>
		<line class="st5" x1="1216.5" y1="393" x2="1216.5" y2="255"/>
		<line class="st4" x1="1227.7" y1="393" x2="1227.7" y2="255"/>
		<g>
			<g>
				<path d="M1232.6,245.4l-1.8-3.2h1.6l0.6,1.2c0.2,0.3,0.3,0.6,0.5,1.1h0c0.2-0.4,0.3-0.8,0.4-1.1l0.6-1.2h1.6l-1.8,3.2l1.9,3.3
					h-1.7l-0.7-1.3c-0.2-0.3-0.3-0.7-0.5-1.1h0c-0.2,0.4-0.3,0.7-0.5,1.1l-0.7,1.3h-1.6L1232.6,245.4z"/>
			</g>
		</g>
	</g>
	<g id="X1">
		<path class="st2" d="M1188,393c0-46,0-92,0-138"/>
		<line class="st3" x1="1176.9" y1="393" x2="1176.9" y2="255"/>
		<line class="st4" x1="1166.7" y1="393" x2="1166.7" y2="255"/>
		<line class="st5" x1="1155.5" y1="393" x2="1155.5" y2="255"/>
		<line class="st4" x1="1166.7" y1="393" x2="1166.7" y2="255"/>
		<g>
			<g>
				<path d="M1166.3,245.4l-1.8-3.2h1.6l0.6,1.2c0.2,0.3,0.3,0.6,0.5,1.1h0c0.2-0.4,0.3-0.8,0.4-1.1l0.6-1.2h1.6l-1.8,3.2l1.9,3.3
					h-1.7l-0.7-1.3c-0.2-0.3-0.3-0.7-0.5-1.1h0c-0.2,0.4-0.3,0.7-0.5,1.1l-0.7,1.3h-1.6L1166.3,245.4z"/>
				<path d="M1171,247.5h1.7v-3.7h-1.4V243c0.9-0.1,1.3-0.3,1.8-0.6h1.1v5.2h1.4v1.2h-4.6V247.5L1171,247.5z"/>
			</g>
		</g>
	</g>
	<g id="Y">
		<path class="st2" d="M1127,393c0-46,0-92,0-138"/>
		<line class="st3" x1="1115.9" y1="393" x2="1115.9" y2="255"/>
		<line class="st4" x1="1105.7" y1="393" x2="1105.7" y2="255"/>
		<line class="st5" x1="1094.5" y1="393" x2="1094.5" y2="255"/>
		<line class="st4" x1="1105.7" y1="393" x2="1105.7" y2="255"/>
		<g>
			<g>
				<path d="M1110.4,246.5l-2.1-4.3h1.6l0.7,1.6c0.2,0.5,0.4,1,0.6,1.5h0c0.2-0.5,0.4-1,0.6-1.5l0.7-1.6h1.5l-2.1,4.3v2.2h-1.5
					L1110.4,246.5L1110.4,246.5z"/>
			</g>
		</g>
	</g>
	<g id="Y1">
		<path class="st2" d="M1009,393c0-46,0-92,0-138"/>
		<line class="st3" x1="997.9" y1="393" x2="997.9" y2="255"/>
		<line class="st4" x1="987.7" y1="393" x2="987.7" y2="255"/>
		<line class="st5" x1="976.5" y1="393" x2="976.5" y2="255"/>
		<line class="st4" x1="987.7" y1="393" x2="987.7" y2="255"/>
		<g>
			<g>
				<path d="M988.4,246.5l-2.1-4.3h1.6l0.7,1.6c0.2,0.5,0.4,1,0.6,1.5h0c0.2-0.5,0.4-1,0.6-1.5l0.7-1.6h1.5l-2.1,4.3v2.2h-1.5
					L988.4,246.5L988.4,246.5z"/>
				<path d="M993,247.5h1.7v-3.7h-1.4V243c0.9-0.1,1.3-0.3,1.8-0.6h1.1v5.2h1.4v1.2H993L993,247.5L993,247.5z"/>
			</g>
		</g>
	</g>
	<g id="Z">
		<path class="st2" d="M950,394c0-46,0-92,0-138"/>
		<line class="st3" x1="938.9" y1="394" x2="938.9" y2="256"/>
		<line class="st4" x1="928.7" y1="394" x2="928.7" y2="256"/>
		<line class="st5" x1="917.5" y1="394" x2="917.5" y2="256"/>
		<line class="st4" x1="928.7" y1="394" x2="928.7" y2="256"/>
		<g>
			<g>
				<path d="M931.8,247.8l3-4.4h-2.8v-1.2h4.6v0.9l-3,4.4h3.1v1.2h-4.9V247.8z"/>
			</g>
		</g>
	</g>
	<g id="Z1">
		<path class="st2" d="M888,393c0-46,0-92,0-138"/>
		<line class="st3" x1="876.9" y1="393" x2="876.9" y2="255"/>
		<line class="st4" x1="866.7" y1="393" x2="866.7" y2="255"/>
		<line class="st5" x1="855.5" y1="393" x2="855.5" y2="255"/>
		<line class="st4" x1="866.7" y1="393" x2="866.7" y2="255"/>
		<g>
			<g>
				<path d="M867.2,247.1l3-4.4h-2.8v-1.2h4.6v0.9l-3,4.4h3.1v1.2h-4.9V247.1z"/>
				<path d="M873.4,246.9h1.7v-3.7h-1.4v-0.9c0.9-0.1,1.3-0.3,1.8-0.6h1.1v5.2h1.4v1.2h-4.6L873.4,246.9L873.4,246.9z"/>
			</g>
		</g>
	</g>
	<g id="Z2">
		<path class="st2" d="M823,394c0-46,0-92,0-138"/>
		<line class="st3" x1="811.9" y1="394" x2="811.9" y2="256"/>
		<line class="st4" x1="801.7" y1="394" x2="801.7" y2="256"/>
		<line class="st5" x1="790.5" y1="394" x2="790.5" y2="256"/>
		<line class="st4" x1="801.7" y1="394" x2="801.7" y2="256"/>
		<g>
			<g>
				<path d="M800.5,247.2l3-4.4h-2.8v-1.2h4.6v0.9l-3,4.4h3.1v1.2h-4.9V247.2z"/>
				<path d="M806.5,247.3c1.8-1.5,3-2.6,3-3.5c0-0.6-0.4-0.9-1-0.9c-0.5,0-0.9,0.3-1.3,0.6l-0.8-0.8c0.7-0.7,1.3-1,2.3-1
					c1.3,0,2.2,0.8,2.2,2c0,1.1-1.1,2.2-2.3,3.3c0.4,0,0.8-0.1,1.2-0.1h1.5v1.2h-4.8V247.3z"/>
			</g>
		</g>
	</g>
	<g id="Extruder">
		<path class="st2" d="M755,393c0-46,0-92,0-138"/>
		<line class="st3" x1="743.9" y1="393" x2="743.9" y2="255"/>
		<line class="st4" x1="733.7" y1="393" x2="733.7" y2="255"/>
		<line class="st5" x1="722.5" y1="393" x2="722.5" y2="255"/>
		<line class="st4" x1="733.7" y1="393" x2="733.7" y2="255"/>
		<g>
			<g>
				<path d="M716.7,242.1h4.3v1.2h-2.8v1.3h2.4v1.2h-2.4v1.5h2.9v1.2h-4.4V242.1z"/>
				<path d="M723.8,246.1l-1.6-2.4h1.6l0.5,0.8c0.2,0.3,0.3,0.6,0.5,0.9h0c0.1-0.3,0.3-0.6,0.4-0.9l0.4-0.8h1.5l-1.6,2.6l1.7,2.4
					h-1.6l-0.6-0.8c-0.2-0.3-0.4-0.6-0.6-0.9h0c-0.2,0.3-0.3,0.6-0.5,0.9l-0.5,0.8h-1.5L723.8,246.1z"/>
				<path d="M729.5,246.6v-1.8h-1.2v-1.1l1.3-0.1l0.2-1.5h1.2v1.5h2.1v1.1H731v1.7c0,0.8,0.3,1,1,1c0.4,0,0.7-0.1,1-0.2l0.3,1.1
					c-0.4,0.1-1,0.3-1.6,0.3C730,248.8,729.5,247.9,729.5,246.6z"/>
				<path d="M734.9,243.7h1.2l0.1,1.1h0c0.5-0.8,1.2-1.2,2-1.2c0.4,0,0.7,0.1,1,0.2l-0.3,1.2c-0.3-0.1-0.5-0.1-0.9-0.1
					c-0.6,0-1.2,0.3-1.7,1.2v2.6h-1.5L734.9,243.7L734.9,243.7z"/>
				<path d="M740.4,246.8v-3.1h1.5v2.9c0,0.7,0.2,0.9,0.7,0.9c0.4,0,0.6-0.1,1-0.6v-3.3h1.5v5h-1.2l-0.1-0.7h0
					c-0.4,0.5-1,0.8-1.7,0.8C740.8,248.8,740.4,248,740.4,246.8z"/>
				<path d="M746.2,246.2c0-1.6,1-2.6,2.1-2.6c0.5,0,0.9,0.2,1.2,0.5h0l-0.1-0.8v-1.7h1.5v7h-1.2l-0.1-0.5h0
					c-0.4,0.4-0.9,0.6-1.4,0.6C747,248.8,746.2,247.8,746.2,246.2z M749.5,247.1v-2c-0.3-0.2-0.5-0.3-0.8-0.3c-0.5,0-1,0.4-1,1.4
					c0,1,0.4,1.4,1,1.4C749,247.6,749.3,247.4,749.5,247.1z"/>
				<path d="M752.3,246.2c0-1.6,1.2-2.6,2.6-2.6c1.5,0,2.3,1,2.3,2.4c0,0.3,0,0.5-0.1,0.7h-3.8v-1h2.8l-0.2,0.3c0-0.8-0.3-1.2-1-1.2
					c-0.7,0-1.2,0.5-1.2,1.5c0,1,0.6,1.5,1.5,1.5c0.5,0,0.8-0.1,1.3-0.3l0.5,0.9c-0.6,0.4-1.3,0.6-2,0.6
					C753.5,248.8,752.3,247.8,752.3,246.2z"/>
				<path d="M758.9,243.7h1.2l0.1,1.1h0c0.5-0.8,1.2-1.2,2-1.2c0.4,0,0.7,0.1,1,0.2l-0.3,1.2c-0.3-0.1-0.5-0.1-0.9-0.1
					c-0.6,0-1.2,0.3-1.7,1.2v2.6h-1.5L758.9,243.7L758.9,243.7z"/>
			</g>
		</g>
	</g>
	<rect x="891.7" y="412.1" class="st6" width="182" height="43"/>
	<g>
		<g>
			<path class="st7" d="M897.7,425v-5.2h1.9v5.4c0,1,0.4,1.6,1.2,1.6s1.2-0.5,1.2-1.6v-5.4h1.8v5.2c0,2.2-1,3.4-3,3.4
				C898.7,428.4,897.7,427.2,897.7,425z"/>
			<path class="st7" d="M905.3,427.4l0.8-1.2c0.8,0.5,1.7,0.8,2.6,0.8c0.7,0,1-0.2,1-0.5c0-0.4-0.3-0.5-1.6-0.8
				c-1.8-0.4-2.5-1-2.5-2c0-1.2,1.1-2,3-2c1.2,0,2.1,0.5,2.8,0.9l-0.9,1.1c-0.7-0.4-1.4-0.6-2.1-0.6c-0.6,0-0.9,0.2-0.9,0.5
				c0,0.4,0.4,0.4,1.5,0.7c2,0.5,2.5,1,2.5,2.1c0,1.2-1.1,2.1-3.2,2.1C907.3,428.4,906.2,428,905.3,427.4z"/>
			<path class="st7" d="M913.2,425c0-2.1,1.6-3.4,3.4-3.4c2,0,3,1.3,3,3.1c0,0.4,0,0.7-0.1,0.9h-4.9v-1.3h3.6l-0.3,0.4
				c0-1-0.5-1.6-1.3-1.6c-0.9,0-1.6,0.6-1.6,1.9c0,1.3,0.7,1.9,2,1.9c0.6,0,1.1-0.2,1.7-0.5l0.6,1.1c-0.7,0.5-1.7,0.8-2.6,0.8
				C914.7,428.4,913.2,427.2,913.2,425z"/>
			<path class="st7" d="M930.7,425.7v-5.1h-2v-1.5h3.9v6.7c0,0.8,0.5,1.1,1,1.1c0.3,0,0.6-0.1,1-0.2l0.4,1.4
				c-0.7,0.2-1.1,0.4-1.9,0.4C931.6,428.4,930.7,427.4,930.7,425.7z"/>
			<path class="st7" d="M936.5,425c0-2.1,1.6-3.4,3.3-3.4c1.7,0,3.3,1.2,3.3,3.4s-1.6,3.4-3.3,3.4
				C938.1,428.4,936.5,427.2,936.5,425z M941.1,425c0-1.1-0.5-1.8-1.3-1.8s-1.3,0.7-1.3,1.8c0,1.1,0.5,1.8,1.3,1.8
				C940.6,426.9,941.1,426.1,941.1,425z"/>
			<path class="st7" d="M944.5,425c0-2.1,1.7-3.4,3.7-3.4c1,0,1.9,0.4,2.4,0.9l-0.9,1.2c-0.5-0.4-0.9-0.5-1.4-0.5
				c-1.1,0-1.9,0.7-1.9,1.8c0,1.1,0.8,1.8,1.8,1.8c0.7,0,1.2-0.3,1.7-0.6l0.8,1.2c-0.8,0.6-1.8,1-2.7,1
				C946.1,428.4,944.5,427.2,944.5,425z"/>
			<path class="st7" d="M952.4,419.1h1.9v5.2h0l2.4-2.6h2.1l-4.5,4.8v1.6h-1.9V419.1z M955.1,425.3l1.1-1.2l2.8,4.1H957L955.1,425.3
				z"/>
			<path class="st7" d="M962.9,423.3h-2.6v-1.5h4.5v6.5h-1.9L962.9,423.3L962.9,423.3z M962.5,419.6c0-0.7,0.5-1.2,1.3-1.2
				s1.3,0.5,1.3,1.2s-0.5,1.2-1.3,1.2S962.5,420.3,962.5,419.6z"/>
			<path class="st7" d="M968,421.8h1.6l0.1,0.9h0c0.6-0.5,1.3-1,2.2-1c1.5,0,2.1,1,2.1,2.6v4h-1.9v-3.7c0-0.9-0.2-1.2-1-1.2
				c-0.5,0-0.9,0.2-1.3,0.7v4.3H968L968,421.8L968,421.8z"/>
			<path class="st7" d="M975.5,429.3c0-0.5,0.3-1,1-1.3v0c-0.4-0.2-0.7-0.5-0.7-1.1c0-0.4,0.3-0.9,0.8-1.2v0
				c-0.5-0.3-0.9-0.9-0.9-1.7c0-1.5,1.3-2.3,2.8-2.3c0.4,0,0.8,0,1.1,0.2h2.6v1.4h-1.3c0.2,0.2,0.3,0.5,0.3,0.8
				c0,1.5-1.2,2.2-2.7,2.2c-0.3,0-0.6,0-0.9-0.1c-0.2,0.1-0.3,0.3-0.3,0.5c0,0.3,0.3,0.5,1.1,0.5h1.2c1.7,0,2.6,0.5,2.6,1.6
				c0,1.3-1.5,2.3-3.8,2.3C976.8,431,975.5,430.5,975.5,429.3z M980.5,429c0-0.4-0.4-0.5-1.1-0.5h-0.8c-0.5,0-0.8,0-1-0.1
				c-0.3,0.2-0.5,0.4-0.5,0.6c0,0.5,0.6,0.7,1.6,0.7C979.8,429.8,980.5,429.4,980.5,429z M979.5,424c0-0.7-0.4-1-1-1
				c-0.5,0-1,0.4-1,1c0,0.7,0.4,1.1,1,1.1S979.5,424.7,979.5,424z"/>
			<path class="st7" d="M991.3,425c0-2.1,1.7-3.4,3.7-3.4c1,0,1.9,0.4,2.4,0.9l-0.9,1.2c-0.5-0.4-0.9-0.5-1.4-0.5
				c-1.1,0-1.9,0.7-1.9,1.8c0,1.1,0.8,1.8,1.8,1.8c0.7,0,1.2-0.3,1.7-0.6l0.8,1.2c-0.8,0.6-1.8,1-2.7,1
				C992.9,428.4,991.3,427.2,991.3,425z"/>
			<path class="st7" d="M998.9,425c0-2.1,1.6-3.4,3.3-3.4c1.7,0,3.3,1.2,3.3,3.4s-1.6,3.4-3.3,3.4
				C1000.5,428.4,998.9,427.2,998.9,425z M1003.5,425c0-1.1-0.5-1.8-1.3-1.8s-1.3,0.7-1.3,1.8c0,1.1,0.5,1.8,1.3,1.8
				C1003,426.9,1003.5,426.1,1003.5,425z"/>
			<path class="st7" d="M1007,421.8h1.6l0.1,0.9h0c0.6-0.5,1.3-1,2.2-1c1.5,0,2.1,1,2.1,2.6v4h-1.9v-3.7c0-0.9-0.2-1.2-1-1.2
				c-0.5,0-0.9,0.2-1.3,0.7v4.3h-1.9L1007,421.8L1007,421.8z"/>
			<path class="st7" d="M1014.8,421.8h1.6l0.1,0.9h0c0.6-0.5,1.3-1,2.2-1c1.5,0,2.1,1,2.1,2.6v4h-1.9v-3.7c0-0.9-0.2-1.2-1-1.2
				c-0.5,0-0.9,0.2-1.3,0.7v4.3h-1.9L1014.8,421.8L1014.8,421.8z"/>
			<path class="st7" d="M1022.4,425c0-2.1,1.6-3.4,3.4-3.4c2,0,3,1.3,3,3.1c0,0.4,0,0.7-0.1,0.9h-4.9v-1.3h3.6l-0.3,0.4
				c0-1-0.5-1.6-1.3-1.6c-0.9,0-1.6,0.6-1.6,1.9c0,1.3,0.7,1.9,2,1.9c0.6,0,1.1-0.2,1.7-0.5l0.6,1.1c-0.7,0.5-1.7,0.8-2.6,0.8
				C1023.9,428.4,1022.4,427.2,1022.4,425z"/>
			<path class="st7" d="M1030.3,425c0-2.1,1.7-3.4,3.7-3.4c1,0,1.9,0.4,2.4,0.9l-0.9,1.2c-0.5-0.4-0.9-0.5-1.4-0.5
				c-1.1,0-1.9,0.7-1.9,1.8c0,1.1,0.8,1.8,1.8,1.8c0.7,0,1.2-0.3,1.7-0.6l0.8,1.2c-0.8,0.6-1.8,1-2.6,1
				C1031.9,428.4,1030.3,427.2,1030.3,425z"/>
			<path class="st7" d="M1039.5,425.6v-2.3h-1.6v-1.4l1.7-0.1l0.2-2h1.6v2h2.7v1.5h-2.7v2.2c0,1,0.4,1.4,1.4,1.4
				c0.5,0,0.9-0.1,1.3-0.2l0.3,1.4c-0.6,0.2-1.2,0.4-2.1,0.4C1040.2,428.4,1039.5,427.3,1039.5,425.6z"/>
			<path class="st7" d="M1045.7,425c0-2.1,1.6-3.4,3.3-3.4c1.7,0,3.3,1.2,3.3,3.4s-1.6,3.4-3.3,3.4
				C1047.3,428.4,1045.7,427.2,1045.7,425z M1050.3,425c0-1.1-0.4-1.8-1.3-1.8s-1.3,0.7-1.3,1.8c0,1.1,0.4,1.8,1.3,1.8
				C1049.8,426.9,1050.3,426.1,1050.3,425z"/>
			<path class="st7" d="M1054.4,421.8h1.6l0.1,1.4h0c0.6-1,1.6-1.6,2.6-1.6c0.6,0,0.9,0.1,1.2,0.3l-0.4,1.6
				c-0.4-0.1-0.7-0.2-1.1-0.2c-0.8,0-1.6,0.4-2.2,1.6v3.4h-1.9L1054.4,421.8L1054.4,421.8z"/>
			<path class="st7" d="M1061.3,427.4l0.8-1.2c0.8,0.5,1.7,0.8,2.6,0.8c0.7,0,1-0.2,1-0.5c0-0.4-0.3-0.5-1.6-0.8
				c-1.8-0.4-2.5-1-2.5-2c0-1.2,1.1-2,3-2c1.2,0,2.1,0.5,2.8,0.9l-0.9,1.1c-0.7-0.4-1.4-0.6-2.1-0.6c-0.6,0-0.9,0.2-0.9,0.5
				c0,0.4,0.4,0.4,1.5,0.7c2,0.5,2.5,1,2.5,2.1c0,1.2-1.1,2.1-3.2,2.1C1063.3,428.4,1062.2,428,1061.3,427.4z"/>
			<path class="st7" d="M949.9,440.2c0-2.4,1.1-4.4,2.8-5.9l1.1,0.9c-1.5,1.5-2.2,3-2.2,5.1s0.7,3.6,2.2,5.1l-1.1,0.9
				C951,444.7,949.9,442.7,949.9,440.2z"/>
			<path class="st7" d="M956.1,442.6l1.1-1.2c0.5,0.6,1.1,0.9,1.6,0.9c0.9,0,1.3-0.4,1.3-1.5V437h-3.3v-1.6h5.2v5.6
				c0,1.7-0.8,3-3.2,3C958,444,956.9,443.6,956.1,442.6z"/>
			<path class="st7" d="M963.8,442.8l1.1-1.3c0.6,0.5,1.4,0.9,2.2,0.9c0.8,0,1.2-0.3,1.2-0.7c0-0.6-0.5-0.8-1.3-1.1l-1.1-0.5
				c-0.9-0.4-1.8-1.1-1.8-2.3c0-1.4,1.3-2.5,3.1-2.5c1,0,2,0.4,2.8,1.1l-1,1.2c-0.6-0.4-1.1-0.7-2-0.7c-0.6,0-1.1,0.3-1.1,0.8
				c0,0.5,0.6,0.7,1.4,1l1,0.4c1.1,0.4,1.8,1.1,1.8,2.3c0,1.4-1.2,2.6-3.3,2.6C965.9,444,964.7,443.6,963.8,442.8z"/>
			<path class="st7" d="M973.9,437h-2.5v-1.6h7v1.6h-2.5v6.9h-1.9L973.9,437L973.9,437z"/>
			<path class="st7" d="M989.3,439.5l-2.3-4.1h2.1l0.8,1.6c0.2,0.4,0.4,0.8,0.7,1.4h0c0.2-0.5,0.4-1,0.6-1.4l0.8-1.6h2l-2.3,4.2
				l2.5,4.3H992l-0.9-1.7c-0.2-0.4-0.4-0.9-0.7-1.4h0c-0.2,0.5-0.4,1-0.6,1.4l-0.9,1.7h-2L989.3,439.5z"/>
			<path class="st7" d="M995.2,435.4h1.9v3.3h2.3v-3.3h1.9v8.5h-1.9v-3.5h-2.3v3.5h-1.9V435.4z"/>
			<path class="st7" d="M1003.1,435.4h3c1.8,0,3.3,0.7,3.3,2.7c0,2-1.5,2.9-3.3,2.9h-1.1v2.9h-1.9V435.4z M1006,439.5
				c1,0,1.5-0.5,1.5-1.4s-0.5-1.2-1.5-1.2h-1v2.5L1006,439.5L1006,439.5z"/>
			<path class="st7" d="M1011.6,445.3c1.5-1.5,2.2-3,2.2-5.1s-0.7-3.6-2.2-5.1l1.1-0.9c1.7,1.5,2.8,3.5,2.8,5.9s-1.1,4.4-2.8,5.9
				L1011.6,445.3z"/>
		</g>
	</g>
	<rect id="Jumper" x="1216.5" y="480.1" class="st8" width="8.9" height="20.8"/>
	<rect id="Jumper_1_" x="1147.9" y="480.1" class="st8" width="8.9" height="20.8"/>
	<rect id="Jumper_2_" x="1077" y="480.1" class="st8" width="8.9" height="20.8"/>
	<rect id="Jumper_3_" x="1007.6" y="480.1" class="st8" width="8.9" height="20.8"/>
	<rect id="Jumper_4_" x="938" y="480.1" class="st8" width="8.9" height="20.8"/>
	<rect id="Jumper_5_" x="870.1" y="480.1" class="st8" width="8.9" height="20.8"/>
	<rect id="Jumper_6_" x="801.7" y="480.1" class="st8" width="8.9" height="20.8"/>
	<rect id="Jumper_7_" x="731.5" y="480.1" class="st8" width="8.9" height="20.8"/>
</g>
<g id="Endstops">
	<rect x="1033.9" y="580.9" class="st9" width="20.1" height="8.9"/>
	<rect x="1056.9" y="580.9" class="st9" width="20.1" height="8.9"/>
	<rect x="1012" y="580.9" class="st9" width="18.6" height="8.9"/>
	<rect x="988.2" y="580.9" class="st9" width="20.8" height="8.9"/>
</g>
<g id="Thermistors">
	<g id="Bed">
		<line class="st10" x1="976.5" y1="691.2" x2="976.5" y2="880.6"/>
		<line class="st10" x1="988.1" y1="691.1" x2="988.1" y2="880.4"/>
	</g>
	<g id="Heater">
		<line class="st10" x1="929.5" y1="691" x2="929.5" y2="833.6"/>
		<line class="st10" x1="941.1" y1="691.1" x2="941.1" y2="834"/>
	</g>
</g>
<g id="Fans">
	<g id="Fan_Warning">
		<rect x="798" y="592" class="st6" width="108" height="43"/>
		<g>
			<g>
				<path class="st7" d="M806.1,599.7h2.3c2.5,0,4.1,1.3,4.1,4.2c0,2.9-1.6,4.3-4,4.3h-2.5L806.1,599.7L806.1,599.7z M808.3,606.6
					c1.3,0,2.2-0.7,2.2-2.7c0-2-0.9-2.7-2.2-2.7H808v5.4H808.3z"/>
				<path class="st7" d="M813.6,604.9c0-2.2,1.6-3.4,3.3-3.4c1.7,0,3.3,1.2,3.3,3.4s-1.6,3.4-3.3,3.4S813.6,607.1,813.6,604.9z
					 M818.2,604.9c0-1.1-0.5-1.8-1.3-1.8s-1.3,0.7-1.3,1.8c0,1.1,0.5,1.8,1.3,1.8C817.8,606.8,818.2,606,818.2,604.9z"/>
				<path class="st7" d="M821.6,605.7v-4h1.9v3.7c0,0.8,0.2,1.2,0.9,1.2c0.5,0,0.8-0.2,1.2-0.7v-4.2h1.9v6.5H826l-0.1-0.9h0
					c-0.6,0.7-1.2,1.1-2.2,1.1C822.2,608.3,821.6,607.3,821.6,605.7z"/>
				<path class="st7" d="M831.2,607.4L831.2,607.4l-0.2,0.7h-1.5V599h1.9v2.2l-0.1,1h0c0.5-0.5,1.1-0.7,1.8-0.7
					c1.6,0,2.6,1.3,2.6,3.3c0,2.2-1.3,3.5-2.8,3.5C832.4,608.3,831.8,608,831.2,607.4z M833.8,604.8c0-1.2-0.4-1.7-1.2-1.7
					c-0.4,0-0.8,0.2-1.2,0.6v2.6c0.4,0.3,0.8,0.4,1.1,0.4C833.3,606.7,833.8,606.2,833.8,604.8z"/>
				<path class="st7" d="M839.1,605.6v-5.1h-2V599h3.9v6.7c0,0.8,0.5,1.1,1,1.1c0.3,0,0.6-0.1,1-0.2l0.4,1.4
					c-0.7,0.2-1.1,0.3-1.9,0.3C839.9,608.3,839.1,607.3,839.1,605.6z"/>
				<path class="st7" d="M844.9,604.9c0-2.1,1.6-3.4,3.4-3.4c2,0,3,1.3,3,3.1c0,0.3,0,0.7-0.1,0.9h-4.9v-1.3h3.6l-0.3,0.4
					c0-1-0.5-1.6-1.3-1.6c-0.9,0-1.6,0.6-1.6,1.9c0,1.3,0.7,1.9,2,1.9c0.6,0,1.1-0.2,1.7-0.5l0.6,1.2c-0.7,0.5-1.7,0.8-2.6,0.8
					C846.5,608.3,844.9,607.1,844.9,604.9z"/>
				<path class="st7" d="M860.5,604c0-2.8,1.8-4.4,4-4.4c1.1,0,2,0.5,2.5,1.1l-1.1,1.2c-0.4-0.4-0.9-0.6-1.5-0.6
					c-1.2,0-2.1,1-2.1,2.7c0,1.7,0.9,2.8,2.2,2.8c0.6,0,1.1-0.3,1.5-0.8l1.1,1.2c-0.7,0.8-1.6,1.2-2.8,1.2
					C862.3,608.3,860.5,606.8,860.5,604z"/>
				<path class="st7" d="M868.5,599h1.9v2.2l-0.1,1.2h0c0.5-0.5,1.2-1,2.1-1c1.5,0,2.1,1,2.1,2.6v4h-1.9v-3.7c0-0.9-0.2-1.2-1-1.2
					c-0.5,0-0.9,0.2-1.3,0.7v4.3h-1.9L868.5,599L868.5,599z"/>
				<path class="st7" d="M876.1,604.9c0-2.1,1.6-3.4,3.4-3.4c2,0,3,1.3,3,3.1c0,0.3,0,0.7-0.1,0.9h-4.9v-1.3h3.6l-0.3,0.4
					c0-1-0.5-1.6-1.3-1.6c-0.9,0-1.6,0.6-1.6,1.9c0,1.3,0.7,1.9,2,1.9c0.6,0,1.1-0.2,1.7-0.5l0.6,1.2c-0.7,0.5-1.7,0.8-2.6,0.8
					C877.7,608.3,876.1,607.1,876.1,604.9z"/>
				<path class="st7" d="M884.1,604.9c0-2.2,1.7-3.4,3.7-3.4c1,0,1.9,0.4,2.4,0.9l-0.9,1.2c-0.5-0.4-0.9-0.5-1.4-0.5
					c-1.1,0-1.9,0.7-1.9,1.8c0,1.1,0.8,1.8,1.8,1.8c0.7,0,1.2-0.3,1.7-0.6l0.8,1.2c-0.8,0.7-1.8,1-2.7,1
					C885.6,608.3,884.1,607.1,884.1,604.9z"/>
				<path class="st7" d="M892,599h1.9v5.2h0l2.4-2.6h2.1l-4.5,4.8v1.6H892V599z M894.7,605.2l1.1-1.2l2.8,4.1h-2.1L894.7,605.2z"/>
				<path class="st7" d="M806.6,615.3h5.6v1.6h-3.7v2h3.2v1.6h-3.2v3.3h-1.9L806.6,615.3L806.6,615.3z"/>
				<path class="st7" d="M813.8,622c0-1.5,1.2-2.2,4.2-2.4c-0.1-0.6-0.5-0.9-1.4-0.9c-0.6,0-1.2,0.2-2,0.6L814,618
					c0.9-0.5,1.9-0.9,3-0.9c1.8,0,2.9,0.9,2.9,2.9v3.7h-1.6l-0.1-0.7h0c-0.7,0.5-1.5,0.9-2.3,0.9C814.6,623.9,813.8,623,813.8,622z
					 M818,621.8v-1.1c-1.9,0.1-2.4,0.5-2.4,1.1c0,0.4,0.3,0.6,0.9,0.6C817.1,622.4,817.6,622.2,818,621.8z"/>
				<path class="st7" d="M821.7,617.3h1.6l0.1,0.9h0c0.6-0.5,1.3-1,2.2-1c1.5,0,2.1,1,2.1,2.6v4h-1.9V620c0-0.9-0.2-1.2-1-1.2
					c-0.5,0-0.9,0.2-1.3,0.7v4.3h-1.9L821.7,617.3L821.7,617.3z"/>
				<path class="st7" d="M836.6,615.3h2l1,4c0.2,0.9,0.4,1.8,0.7,2.7h0c0.3-0.9,0.4-1.8,0.7-2.7l1-4h2l-2.5,8.5h-2.3L836.6,615.3z"
					/>
				<path class="st7" d="M844.8,620.5c0-2.2,1.6-3.4,3.3-3.4c1.7,0,3.3,1.2,3.3,3.4s-1.6,3.4-3.3,3.4S844.8,622.7,844.8,620.5z
					 M849.4,620.5c0-1.1-0.5-1.8-1.3-1.8s-1.3,0.7-1.3,1.8c0,1.1,0.5,1.8,1.3,1.8C849,622.4,849.4,621.6,849.4,620.5z"/>
				<path class="st7" d="M854.7,621.2v-5.1h-2v-1.5h3.9v6.7c0,0.8,0.5,1.1,1,1.1c0.3,0,0.6-0.1,1-0.2l0.4,1.4
					c-0.7,0.2-1.1,0.3-1.9,0.3C855.5,623.9,854.7,622.9,854.7,621.2z"/>
				<path class="st7" d="M862.1,621.1v-2.3h-1.6v-1.4l1.7-0.1l0.2-2h1.6v2h2.7v1.5H864v2.2c0,1,0.4,1.3,1.4,1.3
					c0.5,0,0.9-0.1,1.3-0.2l0.3,1.4c-0.6,0.2-1.2,0.3-2.1,0.3C862.8,623.9,862.1,622.8,862.1,621.1z"/>
				<path class="st7" d="M868.4,622c0-1.5,1.2-2.2,4.2-2.4c-0.1-0.6-0.5-0.9-1.4-0.9c-0.6,0-1.2,0.2-2,0.6l-0.7-1.2
					c0.9-0.5,1.9-0.9,3-0.9c1.8,0,2.9,0.9,2.9,2.9v3.7H873l-0.1-0.7h0c-0.7,0.5-1.5,0.9-2.3,0.9C869.2,623.9,868.4,623,868.4,622z
					 M872.6,621.8v-1.1c-1.9,0.1-2.4,0.5-2.4,1.1c0,0.4,0.3,0.6,0.9,0.6C871.7,622.4,872.2,622.2,872.6,621.8z"/>
				<path class="st7" d="M876.1,624.8c0-0.5,0.3-1,1-1.3v0c-0.4-0.2-0.7-0.5-0.7-1.1c0-0.4,0.3-0.9,0.8-1.2v0
					c-0.5-0.3-0.8-0.9-0.8-1.7c0-1.5,1.3-2.3,2.8-2.3c0.4,0,0.8,0,1.1,0.2h2.6v1.4h-1.3c0.2,0.2,0.3,0.5,0.3,0.8
					c0,1.5-1.2,2.2-2.7,2.2c-0.3,0-0.6,0-0.9-0.1c-0.2,0.1-0.3,0.3-0.3,0.5c0,0.3,0.3,0.5,1.1,0.5h1.2c1.7,0,2.6,0.5,2.6,1.6
					c0,1.3-1.5,2.3-3.8,2.3C877.3,626.5,876.1,626,876.1,624.8z M881,624.5c0-0.4-0.4-0.5-1.1-0.5h-0.8c-0.5,0-0.8,0-1-0.1
					c-0.3,0.2-0.5,0.4-0.5,0.6c0,0.5,0.6,0.7,1.6,0.7C880.3,625.3,881,624.9,881,624.5z M880.1,619.5c0-0.7-0.4-1-1-1
					c-0.5,0-1,0.4-1,1c0,0.7,0.4,1.1,1,1.1C879.6,620.5,880.1,620.2,880.1,619.5z"/>
				<path class="st7" d="M883.9,620.5c0-2.1,1.6-3.4,3.4-3.4c2,0,3,1.3,3,3.1c0,0.3,0,0.7-0.1,0.9h-4.9v-1.3h3.6l-0.3,0.4
					c0-1-0.5-1.6-1.3-1.6c-0.9,0-1.6,0.6-1.6,1.9c0,1.3,0.7,1.9,2,1.9c0.6,0,1.1-0.2,1.7-0.5l0.6,1.2c-0.7,0.5-1.7,0.8-2.6,0.8
					C885.5,623.9,883.9,622.7,883.9,620.5z"/>
				<path class="st7" d="M893.6,622.6c0-0.8,0.5-1.3,1.3-1.3s1.3,0.5,1.3,1.3s-0.5,1.3-1.3,1.3C894.2,623.9,893.6,623.3,893.6,622.6
					z M894,616.8L894,615h1.9l-0.1,1.7l-0.3,3.7h-1.2L894,616.8z"/>
			</g>
		</g>
	</g>
	<rect x="847.6" y="680.8" class="st8" width="8.9" height="20.8"/>
	<rect x="814.6" y="680.8" class="st8" width="8.9" height="20.8"/>
	<rect x="874.6" y="680.8" class="st8" width="8.9" height="20.8"/>
	<line class="st11" x1="814.6" y1="663.8" x2="815" y2="834"/>
	<line class="st12" x1="824.8" y1="663.4" x2="825.2" y2="833.5"/>
	<g>
		<g>
			<path d="M800.9,838.2h1.9v3.3h2.3v-3.3h1.9v8.5h-1.9v-3.5h-2.3v3.5h-1.9L800.9,838.2L800.9,838.2z"/>
			<path d="M808.4,843.5c0-2.2,1.6-3.4,3.3-3.4c1.7,0,3.3,1.2,3.3,3.4s-1.6,3.4-3.3,3.4S808.4,845.6,808.4,843.5z M813.1,843.5
				c0-1.1-0.5-1.8-1.3-1.8s-1.3,0.7-1.3,1.8c0,1.1,0.5,1.8,1.3,1.8S813.1,844.6,813.1,843.5z"/>
			<path d="M817.9,844v-2.3h-1.6v-1.4l1.7-0.1l0.2-2h1.6v2h2.7v1.5h-2.7v2.2c0,1,0.4,1.3,1.3,1.3c0.5,0,0.9-0.1,1.3-0.2l0.3,1.4
				c-0.6,0.2-1.2,0.3-2.1,0.3C818.6,846.8,817.9,845.7,817.9,844z"/>
			<path d="M824.2,843.5c0-2.1,1.6-3.4,3.4-3.4c2,0,3,1.3,3,3.1c0,0.3,0,0.7-0.1,0.9h-4.9v-1.3h3.6l-0.3,0.4c0-1-0.5-1.6-1.3-1.6
				c-0.9,0-1.6,0.6-1.6,1.9c0,1.3,0.7,1.9,2,1.9c0.6,0,1.1-0.2,1.7-0.5l0.6,1.2c-0.7,0.5-1.7,0.8-2.6,0.8
				C825.7,846.8,824.2,845.6,824.2,843.5z"/>
			<path d="M832.2,840.2h1.6l0.1,0.9h0c0.6-0.5,1.3-1,2.2-1c1.5,0,2.1,1,2.1,2.6v4h-1.9v-3.7c0-0.9-0.2-1.2-1-1.2
				c-0.5,0-0.9,0.2-1.3,0.7v4.3h-1.9L832.2,840.2L832.2,840.2z"/>
			<path d="M839.6,843.5c0-2.1,1.4-3.4,2.8-3.4c0.7,0,1.2,0.2,1.6,0.7h0l-0.1-1v-2.2h1.9v9.1h-1.6l-0.1-0.7h0
				c-0.5,0.5-1.1,0.8-1.8,0.8C840.7,846.8,839.6,845.6,839.6,843.5z M844,844.7v-2.6c-0.3-0.3-0.7-0.4-1.1-0.4
				c-0.7,0-1.3,0.6-1.3,1.8c0,1.3,0.5,1.8,1.2,1.8C843.3,845.3,843.7,845.1,844,844.7z"/>
			<path d="M801.4,853.8h5.6v1.6h-3.7v2h3.2v1.6h-3.2v3.3h-1.9L801.4,853.8L801.4,853.8z"/>
			<path d="M808.6,860.5c0-1.5,1.2-2.2,4.2-2.4c-0.1-0.6-0.5-0.9-1.4-0.9c-0.6,0-1.2,0.2-2,0.6l-0.7-1.2c0.9-0.5,1.9-0.9,3-0.9
				c1.8,0,2.9,0.9,2.9,2.9v3.7h-1.6l-0.1-0.7h0c-0.7,0.5-1.5,0.9-2.3,0.9C809.4,862.4,808.6,861.6,808.6,860.5z M812.9,860.3v-1.1
				c-1.9,0.1-2.4,0.5-2.4,1.1c0,0.4,0.3,0.6,0.9,0.6C811.9,861,812.4,860.7,812.9,860.3z"/>
			<path d="M816.6,855.8h1.6l0.1,0.9h0c0.6-0.5,1.3-1,2.2-1c1.5,0,2.1,1,2.1,2.6v4h-1.9v-3.7c0-0.9-0.2-1.2-1-1.2
				c-0.5,0-0.9,0.2-1.3,0.7v4.3h-1.9L816.6,855.8L816.6,855.8z"/>
		</g>
	</g>
	<line class="st11" x1="847.9" y1="663.5" x2="848.2" y2="787"/>
	<line class="st13" x1="858.9" y1="663.2" x2="859.2" y2="786.7"/>
	<g>
		<g>
			<path d="M836.7,792.2h3c1.8,0,3.3,0.7,3.3,2.7c0,2-1.5,2.9-3.3,2.9h-1.1v2.9h-1.9V792.2z M839.6,796.3c1,0,1.5-0.5,1.5-1.3
				s-0.5-1.2-1.5-1.2h-1v2.5H839.6z"/>
			<path d="M844.3,798.9c0-1.5,1.2-2.2,4.2-2.4c-0.1-0.6-0.5-0.9-1.4-0.9c-0.6,0-1.2,0.2-2,0.6l-0.7-1.2c0.9-0.5,1.9-0.9,3-0.9
				c1.8,0,2.9,0.9,2.9,2.9v3.7h-1.6l-0.1-0.7h0c-0.7,0.5-1.5,0.9-2.3,0.9C845.1,800.8,844.3,800,844.3,798.9z M848.6,798.7v-1.1
				c-1.9,0.1-2.4,0.5-2.4,1.1c0,0.4,0.3,0.6,0.9,0.6C847.6,799.3,848.1,799.1,848.6,798.7z"/>
			<path d="M852.8,794.2h1.6l0.2,1.4h0c0.6-1,1.6-1.6,2.6-1.6c0.6,0,0.9,0.1,1.2,0.3l-0.4,1.6c-0.4-0.1-0.7-0.2-1.1-0.2
				c-0.8,0-1.6,0.4-2.2,1.6v3.3h-1.9V794.2z"/>
			<path d="M861.4,798v-2.3h-1.6v-1.4l1.7-0.1l0.2-2h1.6v2h2.7v1.5h-2.7v2.2c0,1,0.4,1.3,1.3,1.3c0.5,0,0.9-0.1,1.3-0.2l0.3,1.4
				c-0.6,0.2-1.2,0.3-2.1,0.3C862.1,800.8,861.4,799.7,861.4,798z"/>
			<path d="M875.4,796.5c0-2.8,1.8-4.4,4-4.4c1.1,0,2,0.5,2.5,1.1l-1.1,1.2c-0.4-0.4-0.9-0.6-1.5-0.6c-1.2,0-2.1,1-2.1,2.7
				c0,1.7,0.9,2.8,2.2,2.8c0.6,0,1.1-0.3,1.5-0.8l1,1.2c-0.7,0.8-1.6,1.2-2.8,1.2C877.2,800.8,875.4,799.3,875.4,796.5z"/>
			<path d="M883.1,797.5c0-2.2,1.6-3.4,3.3-3.4c1.7,0,3.3,1.2,3.3,3.4s-1.6,3.4-3.3,3.4C884.7,800.8,883.1,799.6,883.1,797.5z
				 M887.8,797.5c0-1.1-0.5-1.8-1.3-1.8s-1.3,0.7-1.3,1.8c0,1.1,0.5,1.8,1.3,1.8S887.8,798.6,887.8,797.5z"/>
			<path d="M890.9,797.5c0-2.2,1.6-3.4,3.3-3.4c1.7,0,3.3,1.2,3.3,3.4s-1.6,3.4-3.3,3.4S890.9,799.6,890.9,797.5z M895.6,797.5
				c0-1.1-0.5-1.8-1.3-1.8s-1.3,0.7-1.3,1.8c0,1.1,0.5,1.8,1.3,1.8S895.6,798.6,895.6,797.5z"/>
			<path d="M900.8,798.2v-5.1h-2v-1.5h3.9v6.7c0,0.8,0.5,1.1,1,1.1c0.3,0,0.6-0.1,1-0.2l0.4,1.4c-0.7,0.2-1.1,0.3-1.9,0.3
				C901.7,800.8,900.8,799.8,900.8,798.2z"/>
			<path d="M909.5,795.7H907v-1.5h4.5v6.5h-1.9L909.5,795.7L909.5,795.7z M909.2,792c0-0.7,0.5-1.2,1.3-1.2s1.3,0.5,1.3,1.2
				s-0.5,1.2-1.3,1.2C909.7,793.2,909.2,792.8,909.2,792z"/>
			<path d="M914.7,794.2h1.6l0.1,0.9h0c0.6-0.5,1.3-1,2.2-1c1.5,0,2.1,1,2.1,2.6v4h-1.9v-3.7c0-0.9-0.2-1.2-1-1.2
				c-0.5,0-0.9,0.2-1.3,0.7v4.3h-1.9L914.7,794.2L914.7,794.2z"/>
			<path d="M922.2,801.8c0-0.5,0.3-1,1-1.3v0c-0.4-0.2-0.7-0.5-0.7-1.1c0-0.4,0.3-0.9,0.8-1.2v0c-0.5-0.3-0.9-0.9-0.9-1.7
				c0-1.5,1.3-2.3,2.8-2.3c0.4,0,0.8,0,1.1,0.2h2.6v1.4h-1.3c0.2,0.2,0.3,0.5,0.3,0.8c0,1.5-1.2,2.2-2.7,2.2c-0.3,0-0.6,0-0.9-0.1
				c-0.2,0.1-0.3,0.3-0.3,0.5c0,0.3,0.3,0.5,1.1,0.5h1.2c1.7,0,2.6,0.5,2.6,1.6c0,1.3-1.5,2.3-3.8,2.3
				C923.5,803.4,922.2,802.9,922.2,801.8z M927.2,801.4c0-0.4-0.4-0.5-1.1-0.5h-0.8c-0.5,0-0.8,0-1-0.1c-0.3,0.2-0.5,0.4-0.5,0.6
				c0,0.5,0.6,0.7,1.6,0.7C926.4,802.2,927.2,801.9,927.2,801.4z M926.2,796.4c0-0.7-0.4-1-1-1c-0.5,0-1,0.4-1,1
				c0,0.7,0.4,1.1,1,1.1C925.8,797.5,926.2,797.1,926.2,796.4z"/>
			<path d="M837.1,807.8h5.6v1.6H839v2h3.2v1.6H839v3.3h-1.9L837.1,807.8L837.1,807.8z"/>
			<path d="M844.3,814.5c0-1.5,1.2-2.2,4.2-2.4c-0.1-0.6-0.5-0.9-1.4-0.9c-0.6,0-1.2,0.2-2,0.6l-0.7-1.2c0.9-0.5,1.9-0.9,3-0.9
				c1.8,0,2.9,0.9,2.9,2.9v3.7h-1.6l-0.1-0.7h0c-0.7,0.5-1.5,0.9-2.3,0.9C845.1,816.4,844.3,815.6,844.3,814.5z M848.6,814.3v-1.1
				c-1.9,0.1-2.4,0.5-2.4,1.1c0,0.4,0.3,0.6,0.9,0.6C847.6,815,848.1,814.7,848.6,814.3z"/>
			<path d="M852.3,809.8h1.6l0.1,0.9h0c0.6-0.5,1.3-1,2.2-1c1.5,0,2.1,1,2.1,2.6v4h-1.9v-3.7c0-0.9-0.2-1.2-1-1.2
				c-0.5,0-0.9,0.2-1.3,0.7v4.3h-1.9L852.3,809.8L852.3,809.8z"/>
			<path d="M859.8,815.4l0.8-1.2c0.8,0.5,1.7,0.8,2.6,0.8c0.7,0,1-0.2,1-0.5c0-0.4-0.3-0.5-1.6-0.8c-1.8-0.4-2.5-1-2.5-2
				c0-1.2,1.1-2,3-2c1.2,0,2.1,0.5,2.8,0.9l-0.9,1.2c-0.7-0.4-1.4-0.6-2.1-0.6c-0.6,0-0.9,0.2-0.9,0.5c0,0.4,0.4,0.4,1.5,0.7
				c2,0.5,2.5,1,2.5,2.1c0,1.2-1.1,2.1-3.2,2.1C861.8,816.4,860.6,816,859.8,815.4z"/>
		</g>
	</g>
	<line class="st11" x1="882.7" y1="663.1" x2="883" y2="738.7"/>
	<line class="st13" x1="893.7" y1="662.9" x2="894" y2="738.5"/>
	<g>
		<g>
			<path d="M879.6,746h2.8c1.8,0,3.1,0.5,3.1,2.1c0,0.8-0.5,1.6-1.5,1.8v0c1.2,0.2,1.8,0.9,1.8,2c0,1.7-1.4,2.5-3.3,2.5h-3.1
				L879.6,746L879.6,746z M882.4,749.4c0.9,0,1.3-0.4,1.3-1c0-0.6-0.4-0.9-1.3-0.9h-0.9v1.9L882.4,749.4L882.4,749.4z M882.6,752.9
				c1,0,1.5-0.4,1.5-1.2c0-0.7-0.5-1-1.5-1h-1v2.2H882.6z"/>
			<path d="M887.3,752.6c0-1.5,1.2-2.2,4.2-2.4c-0.1-0.6-0.5-0.9-1.4-0.9c-0.6,0-1.2,0.2-2,0.6l-0.7-1.2c0.9-0.5,1.9-0.9,3-0.9
				c1.8,0,2.9,0.9,2.9,2.9v3.7h-1.6l-0.1-0.7h0c-0.7,0.5-1.5,0.9-2.3,0.9C888.1,754.6,887.3,753.7,887.3,752.6z M891.5,752.5v-1.1
				c-1.9,0.1-2.4,0.5-2.4,1.1c0,0.4,0.3,0.6,0.9,0.6C890.6,753.1,891,752.8,891.5,752.5z"/>
			<path d="M895.1,751.2c0-2.2,1.7-3.4,3.7-3.4c1,0,1.9,0.4,2.4,0.9l-0.9,1.2c-0.5-0.4-0.9-0.5-1.4-0.5c-1.1,0-1.9,0.7-1.9,1.8
				c0,1.1,0.8,1.8,1.8,1.8c0.7,0,1.2-0.3,1.7-0.6l0.8,1.2c-0.8,0.7-1.8,1-2.7,1C896.7,754.6,895.1,753.3,895.1,751.2z"/>
			<path d="M903,745.3h1.9v5.2h0l2.4-2.6h2.1l-4.5,4.8v1.6H903V745.3z M905.7,751.5l1.1-1.2l2.8,4.1h-2.1L905.7,751.5z"/>
			<path d="M910.8,748h1.6l0.1,0.7h0c0.5-0.5,1.2-0.8,1.9-0.8c1.6,0,2.6,1.3,2.6,3.3c0,2.2-1.3,3.5-2.8,3.5c-0.6,0-1.1-0.2-1.6-0.7
				h0l0.1,1v1.9h-1.9L910.8,748L910.8,748z M915.1,751.1c0-1.2-0.4-1.7-1.2-1.7c-0.4,0-0.8,0.2-1.2,0.6v2.6c0.4,0.3,0.8,0.4,1.1,0.4
				C914.5,753,915.1,752.5,915.1,751.1z"/>
			<path d="M918.5,752.6c0-1.5,1.2-2.2,4.2-2.4c-0.1-0.6-0.5-0.9-1.4-0.9c-0.6,0-1.2,0.2-2,0.6l-0.7-1.2c0.9-0.5,1.9-0.9,3-0.9
				c1.8,0,2.9,0.9,2.9,2.9v3.7h-1.6l-0.1-0.7h0c-0.7,0.5-1.5,0.9-2.3,0.9C919.3,754.6,918.5,753.7,918.5,752.6z M922.7,752.5v-1.1
				c-1.9,0.1-2.4,0.5-2.4,1.1c0,0.4,0.3,0.6,0.9,0.6C921.8,753.1,922.2,752.8,922.7,752.5z"/>
			<path d="M926.3,751.2c0-2.2,1.7-3.4,3.7-3.4c1,0,1.9,0.4,2.4,0.9l-0.9,1.2c-0.5-0.4-0.9-0.5-1.4-0.5c-1.1,0-1.9,0.7-1.9,1.8
				c0,1.1,0.8,1.8,1.8,1.8c0.7,0,1.2-0.3,1.7-0.6l0.8,1.2c-0.8,0.7-1.8,1-2.7,1C927.9,754.6,926.3,753.3,926.3,751.2z"/>
			<path d="M934.2,745.3h1.9v5.2h0l2.4-2.6h2.1l-4.5,4.8v1.6h-1.9V745.3z M936.9,751.5l1.1-1.2l2.8,4.1h-2.1L936.9,751.5z"/>
			<path d="M879.9,761.5h5.6v1.6h-3.7v1.7h3.1v1.6h-3.1v2h3.8v1.6h-5.8V761.5z"/>
			<path d="M889.2,766.7l-2.1-3.1h2l0.7,1c0.2,0.4,0.5,0.8,0.7,1.1h0c0.2-0.4,0.4-0.8,0.5-1.1l0.6-1h2l-2.1,3.3l2.2,3.1h-2.1
				L891,769c-0.2-0.4-0.5-0.8-0.7-1.1h0c-0.2,0.4-0.4,0.8-0.6,1.1l-0.6,1.1h-2L889.2,766.7z"/>
			<path d="M895.2,760.9h1.9v2.2l-0.1,1.2h0c0.5-0.5,1.2-1,2.1-1c1.5,0,2.1,1,2.1,2.6v4h-1.9v-3.7c0-0.9-0.2-1.2-1-1.2
				c-0.5,0-0.9,0.2-1.3,0.7v4.3h-1.9L895.2,760.9L895.2,760.9z"/>
			<path d="M902.9,768.2c0-1.5,1.2-2.2,4.2-2.4c-0.1-0.6-0.5-0.9-1.4-0.9c-0.6,0-1.2,0.2-2,0.6l-0.7-1.2c0.9-0.5,1.9-0.9,3-0.9
				c1.8,0,2.9,0.9,2.9,2.9v3.7h-1.6l-0.1-0.7h0c-0.7,0.5-1.5,0.9-2.3,0.9C903.7,770.2,902.9,769.3,902.9,768.2z M907.1,768.1V767
				c-1.9,0.1-2.4,0.5-2.4,1.1c0,0.4,0.3,0.6,0.9,0.6C906.2,768.7,906.6,768.4,907.1,768.1z"/>
			<path d="M910.7,767.6v-4h1.9v3.7c0,0.8,0.2,1.2,0.9,1.2c0.5,0,0.8-0.2,1.2-0.7v-4.2h1.9v6.5h-1.6l-0.1-0.9h0
				c-0.6,0.7-1.2,1.1-2.2,1.1C911.3,770.2,910.7,769.2,910.7,767.6z"/>
			<path d="M918.3,769.2l0.8-1.2c0.8,0.5,1.7,0.8,2.6,0.8c0.7,0,1-0.2,1-0.5c0-0.4-0.3-0.5-1.6-0.8c-1.8-0.4-2.5-1-2.5-2
				c0-1.2,1.1-2,3-2c1.2,0,2.1,0.5,2.8,0.9l-0.9,1.2c-0.7-0.4-1.4-0.6-2.1-0.6c-0.6,0-0.9,0.2-0.9,0.5c0,0.4,0.4,0.4,1.5,0.7
				c2,0.5,2.5,1,2.5,2.1c0,1.2-1.1,2.1-3.2,2.1C920.3,770.2,919.2,769.7,918.3,769.2z"/>
			<path d="M927.7,767.3v-2.3h-1.6v-1.4l1.7-0.1l0.2-2h1.6v2h2.7v1.5h-2.7v2.2c0,1,0.4,1.3,1.3,1.3c0.5,0,0.9-0.1,1.3-0.2l0.3,1.4
				c-0.6,0.2-1.2,0.3-2.1,0.3C928.5,770.2,927.7,769,927.7,767.3z"/>
			<path d="M942.4,761.5h5.6v1.6h-3.7v2h3.2v1.6h-3.2v3.3h-1.9L942.4,761.5L942.4,761.5z"/>
			<path d="M949.7,768.2c0-1.5,1.2-2.2,4.2-2.4c-0.1-0.6-0.5-0.9-1.4-0.9c-0.6,0-1.2,0.2-2,0.6l-0.7-1.2c0.9-0.5,1.9-0.9,3-0.9
				c1.8,0,2.9,0.9,2.9,2.9v3.7h-1.6l-0.1-0.7h0c-0.7,0.5-1.5,0.9-2.3,0.9C950.5,770.2,949.7,769.3,949.7,768.2z M953.9,768.1V767
				c-1.9,0.1-2.4,0.5-2.4,1.1c0,0.4,0.3,0.6,0.9,0.6C953,768.7,953.4,768.4,953.9,768.1z"/>
			<path d="M957.6,763.6h1.6l0.1,0.9h0c0.6-0.5,1.3-1,2.2-1c1.5,0,2.1,1,2.1,2.6v4h-1.9v-3.7c0-0.9-0.2-1.2-1-1.2
				c-0.5,0-0.9,0.2-1.3,0.7v4.3h-1.9L957.6,763.6L957.6,763.6z"/>
			<path d="M965.2,769.2l0.8-1.2c0.8,0.5,1.7,0.8,2.6,0.8c0.7,0,1-0.2,1-0.5c0-0.4-0.3-0.5-1.6-0.8c-1.8-0.4-2.5-1-2.5-2
				c0-1.2,1.1-2,3-2c1.2,0,2.1,0.5,2.8,0.9l-0.9,1.2c-0.7-0.4-1.4-0.6-2.1-0.6c-0.6,0-0.9,0.2-0.9,0.5c0,0.4,0.4,0.4,1.5,0.7
				c2,0.5,2.5,1,2.5,2.1c0,1.2-1.1,2.1-3.2,2.1C967.2,770.2,966,769.7,965.2,769.2z"/>
		</g>
	</g>
</g>
<g id="Input_Voltage">
	<line class="st11" x1="646.7" y1="631.7" x2="559.4" y2="631.7"/>
	<line class="st12" x1="647.1" y1="654.3" x2="559.8" y2="654.3"/>
	<g>
		<g>
			<path d="M490.4,636.8c2.4-2,4-3.4,4-4.6c0-0.8-0.5-1.2-1.4-1.2c-0.7,0-1.2,0.4-1.7,0.8l-1-1c0.9-0.9,1.7-1.3,3-1.3
				c1.7,0,2.9,1,2.9,2.6c0,1.4-1.4,2.9-3,4.3c0.5,0,1.1-0.1,1.5-0.1h2v1.6h-6.2L490.4,636.8L490.4,636.8z"/>
			<path d="M501.9,633.1c0-0.5,0-1.3,0.1-1.8h-0.1c-0.3,0.5-0.6,0.9-0.9,1.4l-1.2,1.8h5v1.5h-6.8v-1.3l3.5-5h2.3v8.3h-1.8
				L501.9,633.1L501.9,633.1z"/>
			<path d="M505.7,631.5h1.9l1,3c0.2,0.7,0.4,1.3,0.6,2h0c0.2-0.7,0.4-1.3,0.6-2l1-3h1.8l-2.4,6.5h-2.2L505.7,631.5z"/>
			<path d="M521.8,629.5h3c1.8,0,3.3,0.7,3.3,2.7c0,2-1.5,2.9-3.3,2.9h-1.1v2.9h-1.9V629.5z M524.8,633.5c1,0,1.5-0.5,1.5-1.3
				s-0.5-1.2-1.5-1.2h-1v2.5H524.8z"/>
			<path d="M529.3,636.9l1.1-1.3c0.6,0.5,1.4,0.9,2.2,0.9c0.8,0,1.2-0.3,1.2-0.7c0-0.6-0.5-0.8-1.3-1.1l-1.1-0.5
				c-0.9-0.4-1.8-1.1-1.8-2.3c0-1.4,1.3-2.5,3.1-2.5c1,0,2,0.4,2.8,1.1l-1,1.2c-0.6-0.4-1.1-0.7-2-0.7c-0.6,0-1.1,0.3-1.1,0.8
				c0,0.5,0.6,0.7,1.4,1l1,0.4c1.1,0.4,1.8,1.1,1.8,2.3c0,1.4-1.2,2.6-3.3,2.6C531.4,638.1,530.2,637.7,529.3,636.9z"/>
			<path d="M537.3,634.7v-5.2h1.9v5.4c0,1,0.4,1.6,1.2,1.6s1.2-0.5,1.2-1.6v-5.4h1.8v5.2c0,2.2-1,3.4-3,3.4
				C538.3,638.1,537.3,636.9,537.3,634.7z"/>
			<path d="M490.6,651.9h2v-5.3h-2v-1.6h5.9v1.6h-2v5.3h2v1.6h-5.9V651.9z"/>
			<path d="M498.4,647.1h1.6l0.1,0.9h0c0.6-0.5,1.3-1,2.2-1c1.5,0,2.1,1,2.1,2.6v4h-1.9v-3.7c0-0.9-0.2-1.2-1-1.2
				c-0.5,0-0.9,0.2-1.3,0.7v4.3h-1.9L498.4,647.1L498.4,647.1z"/>
			<path d="M506.2,647.1h1.6l0.1,0.7h0c0.5-0.5,1.2-0.8,1.9-0.8c1.6,0,2.6,1.3,2.6,3.3c0,2.2-1.4,3.5-2.8,3.5
				c-0.6,0-1.1-0.2-1.6-0.7h0l0.1,1v1.9h-1.9L506.2,647.1L506.2,647.1z M510.5,650.2c0-1.2-0.4-1.7-1.2-1.7c-0.4,0-0.8,0.2-1.2,0.6
				v2.6c0.4,0.3,0.8,0.4,1.1,0.4C509.9,652.1,510.5,651.6,510.5,650.2z"/>
			<path d="M513.9,651.1v-4h1.9v3.7c0,0.8,0.2,1.2,0.9,1.2c0.5,0,0.8-0.2,1.2-0.7v-4.2h1.9v6.5h-1.6l-0.1-0.9h0
				c-0.6,0.7-1.2,1.1-2.2,1.1C514.5,653.7,513.9,652.7,513.9,651.1z"/>
			<path d="M523.2,650.9v-2.3h-1.6v-1.4l1.7-0.1l0.2-2h1.6v2h2.7v1.5h-2.7v2.2c0,1,0.4,1.3,1.4,1.3c0.5,0,0.9-0.1,1.3-0.2l0.3,1.4
				c-0.6,0.2-1.2,0.3-2.1,0.3C523.9,653.7,523.2,652.5,523.2,650.9z"/>
		</g>
	</g>
</g>
<g id="SSR">
</g>
<g id="Extruder_1_">
	<polyline class="st2" points="643,411 525.4,411 438.1,411 	"/>
	<polyline class="st14" points="643.4,433.6 542.1,433.6 525.8,433.6 438.5,433.6 	"/>
	<g>
		<g>
			<path d="M382.2,409.8h1.9v3.3h2.3v-3.3h1.9v8.5h-1.9v-3.5h-2.3v3.5h-1.9V409.8z"/>
			<path d="M389.8,415c0-2.1,1.6-3.4,3.3-3.4s3.3,1.2,3.3,3.4s-1.6,3.4-3.3,3.4S389.8,417.2,389.8,415z M394.4,415
				c0-1.1-0.5-1.8-1.3-1.8c-0.9,0-1.3,0.7-1.3,1.8c0,1.1,0.5,1.8,1.3,1.8C394,416.9,394.4,416.2,394.4,415z"/>
			<path d="M399.2,415.6v-2.3h-1.6v-1.4l1.7-0.1l0.2-2h1.6v2h2.7v1.5h-2.7v2.2c0,1,0.4,1.4,1.4,1.4c0.5,0,0.9-0.1,1.3-0.2l0.4,1.4
				c-0.6,0.2-1.2,0.4-2.1,0.4C400,418.4,399.2,417.3,399.2,415.6z"/>
			<path d="M405.5,415c0-2.1,1.6-3.4,3.4-3.4c2,0,3,1.3,3,3.1c0,0.4,0,0.7-0.1,0.9h-4.9v-1.3h3.6l-0.3,0.4c0-1-0.5-1.6-1.3-1.6
				c-0.9,0-1.6,0.6-1.6,1.9c0,1.3,0.7,1.9,2,1.9c0.6,0,1.1-0.2,1.7-0.5l0.6,1.1c-0.7,0.5-1.7,0.8-2.6,0.8
				C407,418.4,405.5,417.2,405.5,415z"/>
			<path d="M413.5,411.8h1.6l0.1,0.9h0c0.6-0.5,1.3-1,2.2-1c1.5,0,2.1,1,2.1,2.6v4h-1.9v-3.7c0-0.9-0.2-1.2-1-1.2
				c-0.5,0-0.9,0.2-1.3,0.7v4.3h-1.9L413.5,411.8L413.5,411.8z"/>
			<path d="M421,415c0-2.1,1.4-3.4,2.8-3.4c0.7,0,1.2,0.2,1.6,0.7h0l-0.1-1v-2.2h1.9v9.1h-1.6l-0.1-0.7h0c-0.5,0.5-1.1,0.8-1.8,0.8
				C422.1,418.4,421,417.1,421,415z M425.3,416.3v-2.6c-0.4-0.3-0.7-0.4-1.1-0.4c-0.7,0-1.3,0.6-1.3,1.8c0,1.3,0.5,1.8,1.2,1.8
				C424.6,416.9,425,416.7,425.3,416.3z"/>
			<path d="M382.2,425.4h1.9v3.3h2.3v-3.3h1.9v8.5h-1.9v-3.5h-2.3v3.5h-1.9V425.4z"/>
			<path d="M389.9,430.6c0-2.1,1.6-3.4,3.4-3.4c2,0,3,1.3,3,3.1c0,0.4,0,0.7-0.1,0.9h-4.9v-1.3h3.6l-0.3,0.4c0-1-0.5-1.6-1.3-1.6
				c-0.9,0-1.6,0.6-1.6,1.9c0,1.3,0.7,1.9,2,1.9c0.6,0,1.1-0.2,1.7-0.5l0.6,1.1c-0.7,0.5-1.7,0.8-2.6,0.8
				C391.5,434,389.9,432.8,389.9,430.6z"/>
			<path d="M397.8,432.1c0-1.5,1.2-2.2,4.2-2.4c-0.1-0.6-0.5-0.9-1.4-0.9c-0.6,0-1.2,0.2-2,0.6l-0.7-1.2c0.9-0.5,1.9-0.9,3-0.9
				c1.8,0,2.9,0.9,2.9,2.9v3.7h-1.6l-0.1-0.7h0c-0.6,0.5-1.5,0.9-2.3,0.9C398.6,434,397.8,433.2,397.8,432.1z M402,431.9v-1.1
				c-1.9,0.1-2.4,0.5-2.4,1.1c0,0.4,0.4,0.6,0.9,0.6C401.1,432.5,401.5,432.3,402,431.9z"/>
			<path d="M407,431.2v-2.3h-1.6v-1.4l1.7-0.1l0.2-2h1.6v2h2.7v1.5h-2.7v2.2c0,1,0.4,1.4,1.4,1.4c0.5,0,0.9-0.1,1.3-0.2l0.4,1.4
				c-0.6,0.2-1.2,0.4-2.1,0.4C407.8,434,407,432.9,407,431.2z"/>
			<path d="M413.3,430.6c0-2.1,1.6-3.4,3.4-3.4c2,0,3,1.3,3,3.1c0,0.4,0,0.7-0.1,0.9h-4.9v-1.3h3.6l-0.3,0.4c0-1-0.5-1.6-1.3-1.6
				c-0.9,0-1.6,0.6-1.6,1.9c0,1.3,0.7,1.9,2,1.9c0.6,0,1.1-0.2,1.7-0.5l0.6,1.1c-0.7,0.5-1.7,0.8-2.6,0.8
				C414.9,434,413.3,432.8,413.3,430.6z"/>
			<path d="M421.9,427.4h1.6l0.1,1.4h0c0.6-1.1,1.6-1.6,2.6-1.6c0.6,0,0.9,0.1,1.2,0.3l-0.4,1.6c-0.4-0.1-0.7-0.2-1.1-0.2
				c-0.8,0-1.6,0.4-2.2,1.6v3.4h-1.9L421.9,427.4L421.9,427.4z"/>
		</g>
	</g>
	<polyline class="st2" points="643.7,456.7 526.1,456.7 480,456.7 	"/>
	<path class="st14" d="M526.5,479.3"/>
	<g>
		<g>
			<path d="M400,449.5h2.9c1.8,0,3.1,0.5,3.1,2.1c0,0.8-0.5,1.6-1.5,1.8v0c1.2,0.2,1.8,0.9,1.8,2c0,1.7-1.4,2.5-3.3,2.5H400
				L400,449.5L400,449.5z M402.8,452.9c0.9,0,1.3-0.4,1.3-1c0-0.6-0.4-0.9-1.3-0.9H402v1.9H402.8z M403,456.4c1,0,1.5-0.4,1.5-1.1
				c0-0.7-0.5-1-1.5-1h-1v2.2L403,456.4L403,456.4z"/>
			<path d="M407.6,454.7c0-2.1,1.6-3.4,3.4-3.4c2,0,3,1.3,3,3.1c0,0.4,0,0.7-0.1,0.9H409V454h3.6l-0.3,0.4c0-1-0.5-1.6-1.3-1.6
				c-0.9,0-1.6,0.6-1.6,1.9c0,1.3,0.7,1.9,2,1.9c0.6,0,1.1-0.2,1.7-0.5l0.6,1.1c-0.7,0.5-1.7,0.8-2.6,0.8
				C409.2,458.1,407.6,456.9,407.6,454.7z"/>
			<path d="M415.3,454.7c0-2.1,1.4-3.4,2.8-3.4c0.7,0,1.2,0.2,1.6,0.7h0l-0.1-1v-2.2h1.9v9.1H420l-0.1-0.7h0
				c-0.5,0.5-1.1,0.8-1.8,0.8C416.4,458.1,415.3,456.8,415.3,454.7z M419.6,455.9v-2.6c-0.4-0.3-0.7-0.4-1.1-0.4
				c-0.7,0-1.3,0.6-1.3,1.8c0,1.3,0.5,1.8,1.2,1.8C419,456.5,419.3,456.4,419.6,455.9z"/>
			<path d="M431.1,449.5h1.9v3.3h2.3v-3.3h1.9v8.5h-1.9v-3.5H433v3.5h-1.9V449.5z"/>
			<path d="M438.8,454.7c0-2.1,1.6-3.4,3.4-3.4c2,0,3,1.3,3,3.1c0,0.4,0,0.7-0.1,0.9h-4.9V454h3.6l-0.3,0.4c0-1-0.5-1.6-1.3-1.6
				c-0.9,0-1.6,0.6-1.6,1.9c0,1.3,0.7,1.9,2,1.9c0.6,0,1.1-0.2,1.7-0.5l0.6,1.1c-0.7,0.5-1.7,0.8-2.6,0.8
				C440.4,458.1,438.8,456.9,438.8,454.7z"/>
			<path d="M446.7,456.1c0-1.5,1.2-2.2,4.2-2.4c-0.1-0.6-0.5-0.9-1.4-0.9c-0.6,0-1.2,0.2-2,0.6l-0.7-1.2c0.9-0.5,1.9-0.9,3-0.9
				c1.8,0,2.9,0.9,2.9,2.9v3.7h-1.6l-0.1-0.7h0c-0.6,0.5-1.5,0.9-2.3,0.9C447.5,458.1,446.7,457.2,446.7,456.1z M450.9,456v-1.1
				c-1.9,0.1-2.4,0.5-2.4,1.1c0,0.4,0.4,0.6,0.9,0.6C450,456.6,450.5,456.4,450.9,456z"/>
			<path d="M456,455.3V453h-1.6v-1.4l1.7-0.1l0.2-2h1.6v2h2.7v1.5h-2.7v2.2c0,1,0.4,1.4,1.4,1.4c0.5,0,0.9-0.1,1.3-0.2l0.4,1.4
				c-0.6,0.2-1.2,0.4-2.1,0.4C456.7,458.1,456,457,456,455.3z"/>
			<path d="M462.2,454.7c0-2.1,1.6-3.4,3.4-3.4c2,0,3,1.3,3,3.1c0,0.4,0,0.7-0.1,0.9h-4.9V454h3.6l-0.3,0.4c0-1-0.5-1.6-1.3-1.6
				c-0.9,0-1.6,0.6-1.6,1.9c0,1.3,0.7,1.9,2,1.9c0.6,0,1.1-0.2,1.7-0.5l0.6,1.1c-0.7,0.5-1.7,0.8-2.6,0.8
				C463.8,458.1,462.2,456.9,462.2,454.7z"/>
			<path d="M470.8,451.5h1.6l0.1,1.4h0c0.6-1.1,1.6-1.6,2.6-1.6c0.6,0,0.9,0.1,1.2,0.3l-0.4,1.6c-0.4-0.1-0.7-0.2-1.1-0.2
				c-0.8,0-1.6,0.4-2.2,1.6v3.4h-1.9L470.8,451.5L470.8,451.5z"/>
			<path d="M399.8,472.5l1.1-1.3c0.6,0.5,1.4,0.9,2.2,0.9c0.8,0,1.2-0.3,1.2-0.7c0-0.6-0.5-0.8-1.3-1.1l-1.1-0.5
				c-0.9-0.4-1.8-1.1-1.8-2.3c0-1.4,1.3-2.5,3.1-2.5c1,0,2,0.4,2.8,1.1l-1,1.2c-0.6-0.4-1.1-0.7-2-0.7c-0.6,0-1.1,0.3-1.1,0.8
				c0,0.5,0.6,0.7,1.4,1l1,0.4c1.1,0.4,1.8,1.1,1.8,2.3c0,1.4-1.2,2.6-3.3,2.6C401.8,473.7,400.6,473.3,399.8,472.5z"/>
			<path d="M407.5,472.5l1.1-1.3c0.6,0.5,1.4,0.9,2.2,0.9c0.8,0,1.2-0.3,1.2-0.7c0-0.6-0.5-0.8-1.3-1.1l-1.1-0.5
				c-0.9-0.4-1.8-1.1-1.8-2.3c0-1.4,1.3-2.5,3.1-2.5c1,0,2,0.4,2.8,1.1l-1,1.2c-0.6-0.4-1.1-0.7-2-0.7c-0.6,0-1.1,0.3-1.1,0.8
				c0,0.5,0.6,0.7,1.4,1l1,0.4c1.1,0.4,1.8,1.1,1.8,2.3c0,1.4-1.2,2.6-3.3,2.6C409.6,473.7,408.5,473.3,407.5,472.5z"/>
			<path d="M415.6,465.1h3c1.8,0,3.3,0.6,3.3,2.6c0,2-1.5,2.8-3.3,2.8h-1.1v3h-1.9V465.1z M418.5,469c1,0,1.5-0.4,1.5-1.3
				c0-0.8-0.5-1.1-1.5-1.1h-0.9v2.4H418.5z M419.6,468.8l2.7,4.8h-2.1l-1.9-3.5L419.6,468.8z"/>
		</g>
	</g>
	<line class="st12" x1="643.1" y1="474.3" x2="479" y2="474.3"/>
</g>
<g id="Probe">
	<g id="Layer_14">
		<line class="st15" x1="1021" y1="643.4" x2="1021" y2="786.9"/>
		<line class="st15" x1="1009" y1="643.4" x2="1009" y2="786.9"/>
		<g>
			<g>
				<path d="M1003.5,803.7c0-2.8,1.4-4.3,3.4-4.3c2,0,3.4,1.5,3.4,4.3c0,2.9-1.4,4.4-3.4,4.4
					C1004.9,808.1,1003.5,806.6,1003.5,803.7z M1008.3,803.7c0-1.8-0.6-2.7-1.4-2.7s-1.4,0.9-1.4,2.7c0,2,0.6,2.9,1.4,2.9
					S1008.3,805.6,1008.3,803.7z M1006,807.9l2-0.2c0.2,0.8,1,1,1.6,1c0.3,0,0.5-0.1,0.7-0.2l0.3,1.4c-0.3,0.2-0.7,0.3-1.2,0.3
					C1007.6,810.2,1006.5,809.3,1006,807.9z"/>
				<path d="M1011.6,805.5v-4h1.9v3.7c0,0.8,0.2,1.2,0.9,1.2c0.5,0,0.8-0.2,1.2-0.7v-4.2h1.9v6.5h-1.6l-0.1-0.9h0
					c-0.6,0.7-1.2,1.1-2.2,1.1C1012.2,808.1,1011.6,807.1,1011.6,805.5z"/>
				<path d="M1022.2,803h-2.6v-1.5h4.5v6.5h-1.9V803z M1021.8,799.3c0-0.7,0.5-1.2,1.3-1.2s1.3,0.5,1.3,1.2s-0.5,1.2-1.3,1.2
					C1022.3,800.5,1021.8,800,1021.8,799.3z"/>
				<path d="M1027.3,804.7c0-2.2,1.7-3.4,3.7-3.4c1,0,1.9,0.4,2.4,0.9l-0.9,1.2c-0.5-0.4-0.9-0.5-1.4-0.5c-1.1,0-1.9,0.7-1.9,1.8
					c0,1.1,0.8,1.8,1.8,1.8c0.7,0,1.2-0.3,1.7-0.6l0.8,1.2c-0.8,0.7-1.8,1-2.7,1C1028.8,808.1,1027.3,806.8,1027.3,804.7z"/>
				<path d="M1035.2,798.8h1.9v5.2h0.1l2.4-2.6h2.1l-4.5,4.8v1.6h-1.9V798.8z M1037.9,805l1.1-1.2l2.8,4.1h-2.1L1037.9,805z"/>
				<path d="M1042.6,804.7c0-2.1,1.4-3.4,2.8-3.4c0.7,0,1.2,0.2,1.6,0.7h0l-0.1-1v-2.2h1.9v9.1h-1.6l-0.1-0.7h-0.1
					c-0.5,0.5-1.1,0.8-1.8,0.8C1043.7,808.1,1042.6,806.8,1042.6,804.7z M1046.9,805.9v-2.6c-0.3-0.3-0.7-0.4-1.1-0.4
					c-0.7,0-1.3,0.6-1.3,1.8c0,1.3,0.5,1.8,1.2,1.8C1046.2,806.5,1046.6,806.4,1046.9,805.9z"/>
				<path d="M1051.3,801.5h1.6l0.2,1.4h0c0.6-1,1.6-1.6,2.6-1.6c0.6,0,0.9,0.1,1.2,0.3l-0.4,1.6c-0.4-0.1-0.7-0.2-1.1-0.2
					c-0.8,0-1.6,0.4-2.2,1.6v3.3h-1.9L1051.3,801.5L1051.3,801.5z"/>
				<path d="M1058.4,806.2c0-1.5,1.2-2.2,4.2-2.4c-0.1-0.6-0.5-0.9-1.4-0.9c-0.6,0-1.2,0.2-2,0.6l-0.7-1.2c0.9-0.5,1.9-0.9,3-0.9
					c1.8,0,2.9,0.9,2.9,2.9v3.7h-1.6l-0.1-0.7h-0.1c-0.7,0.5-1.5,0.9-2.3,0.9C1059.2,808.1,1058.4,807.2,1058.4,806.2z M1062.6,806
					v-1.1c-1.9,0.1-2.4,0.5-2.4,1.1c0,0.4,0.3,0.6,0.9,0.6C1061.7,806.6,1062.2,806.3,1062.6,806z"/>
				<path d="M1065.4,801.5h1.8l0.4,3c0.1,0.6,0.1,1.3,0.2,1.9h0c0.1-0.7,0.2-1.3,0.3-1.9l0.4-2.1h1.4l0.4,2.1
					c0.1,0.6,0.2,1.3,0.3,1.9h0.1c0.1-0.7,0.1-1.3,0.2-1.9l0.4-3h1.8l-1,6.5h-2.2l-0.3-2.1c-0.1-0.5-0.2-1.2-0.2-1.9h-0.1
					c-0.1,0.5-0.1,1.1-0.2,1.9l-0.3,2.1h-2.2L1065.4,801.5z"/>
				<path d="M1004,815.1h3c1.8,0,3.3,0.7,3.3,2.7c0,2-1.5,2.9-3.3,2.9h-1.1v2.9h-1.9V815.1z M1006.9,819.1c1,0,1.5-0.5,1.5-1.3
					s-0.5-1.2-1.5-1.2h-1v2.5H1006.9z"/>
				<path d="M1012.3,817.1h1.6l0.2,1.4h0c0.6-1,1.6-1.6,2.6-1.6c0.6,0,0.9,0.1,1.2,0.3l-0.4,1.6c-0.4-0.1-0.7-0.2-1.1-0.2
					c-0.8,0-1.6,0.4-2.2,1.6v3.3h-1.9L1012.3,817.1L1012.3,817.1z"/>
				<path d="M1019.2,820.3c0-2.2,1.6-3.4,3.3-3.4s3.3,1.2,3.3,3.4s-1.6,3.4-3.3,3.4C1020.8,823.7,1019.2,822.5,1019.2,820.3z
					 M1023.8,820.3c0-1.1-0.5-1.8-1.3-1.8s-1.3,0.7-1.3,1.8c0,1.1,0.5,1.8,1.3,1.8S1023.8,821.4,1023.8,820.3z"/>
				<path d="M1029,822.8L1029,822.8l-0.2,0.7h-1.5v-9.1h1.9v2.2l-0.1,1h0.1c0.5-0.5,1.1-0.7,1.8-0.7c1.6,0,2.6,1.3,2.6,3.3
					c0,2.2-1.3,3.5-2.8,3.5C1030.2,823.7,1029.6,823.4,1029,822.8z M1031.6,820.2c0-1.2-0.4-1.7-1.2-1.7c-0.4,0-0.8,0.2-1.2,0.6v2.6
					c0.4,0.3,0.8,0.4,1.1,0.4C1031.1,822.1,1031.6,821.6,1031.6,820.2z"/>
				<path d="M1034.9,820.3c0-2.1,1.6-3.4,3.4-3.4c2,0,3,1.3,3,3.1c0,0.3-0.1,0.7-0.1,0.9h-4.9v-1.3h3.6l-0.3,0.4
					c0-1-0.4-1.6-1.3-1.6c-0.9,0-1.6,0.6-1.6,1.9c0,1.3,0.7,1.9,2,1.9c0.6,0,1.1-0.2,1.7-0.5l0.6,1.2c-0.7,0.5-1.7,0.8-2.6,0.8
					C1036.5,823.7,1034.9,822.5,1034.9,820.3z"/>
			</g>
		</g>
		<g>
			<g>
				<path d="M972.1,889.9h2.8c1.8,0,3.1,0.5,3.1,2.1c0,0.8-0.5,1.6-1.5,1.8v0c1.2,0.2,1.8,0.9,1.8,2c0,1.7-1.4,2.5-3.3,2.5h-3.1
					L972.1,889.9L972.1,889.9z M974.9,893.3c0.9,0,1.3-0.4,1.3-1c0-0.6-0.4-0.9-1.3-0.9H974v1.9L974.9,893.3L974.9,893.3z
					 M975,896.9c1,0,1.5-0.4,1.5-1.2c0-0.7-0.5-1-1.5-1h-1v2.2H975z"/>
				<path d="M979.7,895.2c0-2.1,1.6-3.4,3.4-3.4c2,0,3,1.3,3,3.1c0,0.3,0,0.7-0.1,0.9h-4.9v-1.3h3.6l-0.3,0.4c0-1-0.5-1.6-1.3-1.6
					c-0.9,0-1.6,0.6-1.6,1.9c0,1.3,0.7,1.9,2,1.9c0.6,0,1.1-0.2,1.7-0.5l0.6,1.2c-0.7,0.5-1.7,0.8-2.6,0.8
					C981.2,898.5,979.7,897.3,979.7,895.2z"/>
				<path d="M987.3,895.2c0-2.1,1.4-3.4,2.8-3.4c0.7,0,1.2,0.2,1.6,0.7h0l-0.1-1v-2.2h1.9v9.1H992l-0.1-0.7h0
					c-0.5,0.5-1.1,0.8-1.8,0.8C988.4,898.5,987.3,897.3,987.3,895.2z M991.7,896.4v-2.6c-0.3-0.3-0.7-0.4-1.1-0.4
					c-0.7,0-1.3,0.6-1.3,1.8c0,1.3,0.5,1.8,1.2,1.8C991,897,991.3,896.8,991.7,896.4z"/>
				<path d="M974.1,907.1h-2.5v-1.6h7v1.6H976v6.9h-1.9V907.1z"/>
				<path d="M979.9,904.9h1.9v2.2l-0.1,1.2h0c0.5-0.5,1.2-1,2.1-1c1.5,0,2.1,1,2.1,2.6v4H984v-3.7c0-0.9-0.2-1.2-1-1.2
					c-0.5,0-0.9,0.2-1.3,0.7v4.3h-1.9L979.9,904.9L979.9,904.9z"/>
				<path d="M987.5,910.8c0-2.1,1.6-3.4,3.4-3.4c2,0,3,1.3,3,3.1c0,0.3,0,0.7-0.1,0.9h-4.9V910h3.6l-0.3,0.4c0-1-0.5-1.6-1.3-1.6
					c-0.9,0-1.6,0.6-1.6,1.9c0,1.3,0.7,1.9,2,1.9c0.6,0,1.1-0.2,1.7-0.5l0.6,1.2c-0.7,0.5-1.7,0.8-2.6,0.8
					C989,914.1,987.5,912.9,987.5,910.8z"/>
				<path d="M996,907.5h1.6l0.2,1.4h0c0.6-1,1.6-1.6,2.6-1.6c0.6,0,0.9,0.1,1.2,0.3l-0.4,1.6c-0.4-0.1-0.7-0.2-1.1-0.2
					c-0.8,0-1.6,0.4-2.2,1.6v3.3H996L996,907.5L996,907.5z"/>
				<path d="M1002.8,907.5h1.4l0.1,0.8h0c0.2-0.5,0.7-1,1.4-1c0.6,0,1,0.4,1.1,1c0.2-0.6,0.7-1,1.4-1c0.9,0,1.4,0.8,1.4,2.1v4.5
					h-1.8v-4.4c0-0.4-0.1-0.6-0.3-0.6s-0.4,0.2-0.6,0.6v4.3h-1.5v-4.4c0-0.4-0.1-0.6-0.4-0.6c-0.2,0-0.4,0.2-0.6,0.6v4.3h-1.8V907.5
					z"/>
				<path d="M1013.8,909h-2.6v-1.5h4.5v6.5h-1.9L1013.8,909L1013.8,909z M1013.3,905.3c0-0.7,0.5-1.2,1.3-1.2s1.3,0.5,1.3,1.2
					s-0.5,1.2-1.3,1.2C1013.9,906.5,1013.3,906.1,1013.3,905.3z"/>
				<path d="M1018.6,913.2l0.8-1.2c0.8,0.5,1.7,0.8,2.6,0.8c0.7,0,1-0.2,1-0.5c0-0.4-0.3-0.5-1.6-0.8c-1.8-0.4-2.5-1-2.5-2
					c0-1.2,1.1-2,3-2c1.2,0,2.1,0.5,2.8,0.9l-0.9,1.2c-0.7-0.4-1.4-0.6-2.1-0.6c-0.6,0-0.9,0.2-0.9,0.5c0,0.4,0.4,0.4,1.5,0.7
					c2,0.5,2.5,1,2.5,2.1c0,1.2-1.1,2.1-3.2,2.1C1020.6,914.1,1019.4,913.7,1018.6,913.2z"/>
				<path d="M1028,911.3V909h-1.6v-1.4l1.7-0.1l0.2-2h1.6v2h2.7v1.5h-2.7v2.2c0,1,0.4,1.3,1.3,1.3c0.5,0,0.9-0.1,1.3-0.2l0.3,1.4
					c-0.6,0.2-1.2,0.3-2.1,0.3C1028.7,914.1,1028,913,1028,911.3z"/>
				<path d="M1034.2,910.8c0-2.2,1.6-3.4,3.3-3.4c1.7,0,3.3,1.2,3.3,3.4s-1.6,3.4-3.3,3.4C1035.7,914.1,1034.2,912.9,1034.2,910.8z
					 M1038.8,910.8c0-1.1-0.4-1.8-1.3-1.8s-1.3,0.7-1.3,1.8c0,1.1,0.4,1.8,1.3,1.8S1038.8,911.9,1038.8,910.8z"/>
				<path d="M1042.8,907.5h1.6l0.2,1.4h0c0.6-1,1.6-1.6,2.6-1.6c0.6,0,0.9,0.1,1.2,0.3l-0.4,1.6c-0.4-0.1-0.7-0.2-1.1-0.2
					c-0.8,0-1.6,0.4-2.2,1.6v3.3h-1.9L1042.8,907.5L1042.8,907.5z"/>
			</g>
		</g>
		<g>
			<g>
				<path d="M915.4,837.9h1.9v3.3h2.3v-3.3h1.9v8.5h-1.9v-3.5h-2.3v3.5h-1.9V837.9z"/>
				<path d="M923,843.2c0-2.2,1.6-3.4,3.3-3.4c1.7,0,3.3,1.2,3.3,3.4s-1.6,3.4-3.3,3.4C924.6,846.6,923,845.3,923,843.2z
					 M927.6,843.2c0-1.1-0.5-1.8-1.3-1.8s-1.3,0.7-1.3,1.8c0,1.1,0.5,1.8,1.3,1.8S927.6,844.3,927.6,843.2z"/>
				<path d="M932.5,843.7v-2.3h-1.6V840l1.7-0.1l0.2-2h1.6v2h2.7v1.5h-2.7v2.2c0,1,0.4,1.3,1.3,1.3c0.5,0,0.9-0.1,1.3-0.2l0.3,1.4
					c-0.6,0.2-1.2,0.3-2.1,0.3C933.2,846.6,932.5,845.4,932.5,843.7z"/>
				<path d="M938.7,843.2c0-2.1,1.6-3.4,3.4-3.4c2,0,3,1.3,3,3.1c0,0.3,0,0.7-0.1,0.9h-4.9v-1.3h3.6l-0.3,0.4c0-1-0.5-1.6-1.3-1.6
					c-0.9,0-1.6,0.6-1.6,1.9c0,1.3,0.7,1.9,2,1.9c0.6,0,1.1-0.2,1.7-0.5l0.6,1.2c-0.7,0.5-1.7,0.8-2.6,0.8
					C940.3,846.6,938.7,845.3,938.7,843.2z"/>
				<path d="M946.8,840h1.6l0.1,0.9h0c0.6-0.5,1.3-1,2.2-1c1.5,0,2.1,1,2.1,2.6v4h-1.9v-3.7c0-0.9-0.2-1.2-1-1.2
					c-0.5,0-0.9,0.2-1.3,0.7v4.3h-1.9L946.8,840L946.8,840z"/>
				<path d="M954.2,843.2c0-2.1,1.4-3.4,2.8-3.4c0.7,0,1.2,0.2,1.6,0.7h0l-0.1-1v-2.2h1.9v9.1h-1.6l-0.1-0.7h0
					c-0.5,0.5-1.1,0.8-1.8,0.8C955.3,846.6,954.2,845.3,954.2,843.2z M958.6,844.4v-2.6c-0.3-0.3-0.7-0.4-1.1-0.4
					c-0.7,0-1.3,0.6-1.3,1.8c0,1.3,0.5,1.8,1.2,1.8C957.9,845,958.2,844.8,958.6,844.4z"/>
				<path d="M917.6,855.2H915v-1.6h7v1.6h-2.5v6.9h-1.9L917.6,855.2L917.6,855.2z"/>
				<path d="M923.3,852.9h1.9v2.2l-0.1,1.2h0c0.5-0.5,1.2-1,2.1-1c1.5,0,2.1,1,2.1,2.6v4h-1.9v-3.7c0-0.9-0.2-1.2-1-1.2
					c-0.5,0-0.9,0.2-1.3,0.7v4.3h-1.9L923.3,852.9L923.3,852.9z"/>
				<path d="M930.9,858.8c0-2.1,1.6-3.4,3.4-3.4c2,0,3,1.3,3,3.1c0,0.3,0,0.7-0.1,0.9h-4.9v-1.3h3.6l-0.3,0.4c0-1-0.5-1.6-1.3-1.6
					c-0.9,0-1.6,0.6-1.6,1.9c0,1.3,0.7,1.9,2,1.9c0.6,0,1.1-0.2,1.7-0.5l0.6,1.2c-0.7,0.5-1.7,0.8-2.6,0.8
					C932.5,862.2,930.9,860.9,930.9,858.8z"/>
				<path d="M939.5,855.6h1.6l0.2,1.4h0c0.6-1,1.6-1.6,2.6-1.6c0.6,0,0.9,0.1,1.2,0.3l-0.4,1.6c-0.4-0.1-0.7-0.2-1.1-0.2
					c-0.8,0-1.6,0.4-2.2,1.6v3.3h-1.9L939.5,855.6L939.5,855.6z"/>
				<path d="M946.3,855.6h1.4l0.1,0.8h0c0.2-0.5,0.7-1,1.4-1c0.6,0,1,0.4,1.1,1c0.2-0.6,0.7-1,1.4-1c0.9,0,1.4,0.8,1.4,2.1v4.5h-1.8
					v-4.4c0-0.4-0.1-0.6-0.3-0.6s-0.4,0.2-0.6,0.6v4.3H949v-4.4c0-0.4-0.1-0.6-0.4-0.6c-0.2,0-0.4,0.2-0.6,0.6v4.3h-1.8V855.6z"/>
				<path d="M957.2,857.1h-2.6v-1.5h4.5v6.5h-1.9L957.2,857.1L957.2,857.1z M956.8,853.4c0-0.7,0.5-1.2,1.3-1.2s1.3,0.5,1.3,1.2
					s-0.5,1.2-1.3,1.2C957.4,854.6,956.8,854.1,956.8,853.4z"/>
				<path d="M962.1,861.2l0.8-1.2c0.8,0.5,1.7,0.8,2.6,0.8c0.7,0,1-0.2,1-0.5c0-0.4-0.3-0.5-1.6-0.8c-1.8-0.4-2.5-1-2.5-2
					c0-1.2,1.1-2,3-2c1.2,0,2.1,0.5,2.8,0.9l-0.9,1.2c-0.7-0.4-1.4-0.6-2.1-0.6c-0.6,0-0.9,0.2-0.9,0.5c0,0.4,0.4,0.4,1.5,0.7
					c2,0.5,2.5,1,2.5,2.1c0,1.2-1.1,2.1-3.2,2.1C964.1,862.2,962.9,861.7,962.1,861.2z"/>
				<path d="M971.5,859.3v-2.3h-1.6v-1.4l1.7-0.1l0.2-2h1.6v2h2.7v1.5h-2.7v2.2c0,1,0.4,1.3,1.3,1.3c0.5,0,0.9-0.1,1.3-0.2l0.3,1.4
					c-0.6,0.2-1.2,0.3-2.1,0.3C972.2,862.2,971.5,861,971.5,859.3z"/>
				<path d="M977.6,858.8c0-2.2,1.6-3.4,3.3-3.4c1.7,0,3.3,1.2,3.3,3.4s-1.6,3.4-3.3,3.4S977.6,860.9,977.6,858.8z M982.2,858.8
					c0-1.1-0.5-1.8-1.3-1.8s-1.3,0.7-1.3,1.8c0,1.1,0.5,1.8,1.3,1.8S982.2,859.9,982.2,858.8z"/>
				<path d="M986.3,855.6h1.6l0.2,1.4h0c0.6-1,1.6-1.6,2.6-1.6c0.6,0,0.9,0.1,1.2,0.3l-0.4,1.6c-0.4-0.1-0.7-0.2-1.1-0.2
					c-0.8,0-1.6,0.4-2.2,1.6v3.3h-1.9V855.6z"/>
			</g>
		</g>
	</g>
</g>
<g id="Safe_Defaults">
	<rect x="947.4" y="540" class="st8" width="8.9" height="20.8"/>
	<rect x="1079.8" y="616.1" class="st8" width="8.9" height="20.8"/>
</g>
<rect x="1029.7" y="389.6" class="st9" width="20.1" height="8.9"/>
<rect x="1052.7" y="389.6" class="st9" width="20.1" height="8.9"/>
</svg>
