**ABCDEFGHIJKLMNOPQRSTUVWXYZabcdefghijklmnopqrstuvwxyz**************************
**PARASOLID !"#$%&'()*+,-./:;<=>?@[\]^_`{|}~0123456789**************************
**PART1;
MC=AMD64;
MC_MODEL=AMD64 Family 25 Model 80 Stepping 0, AuthenticAMD;
MC_ID=unknown;
OS=Windows_NT;
OS_RELEASE=unknown;
FRU=Parasolid Version 31.1, build 290,  3- 9-2020;
APPL=SOLIDWORKS 2020-2020196;
SITE=;
USER=unknown;
FORMAT=text;
GUISE=transmit;
KEY=K3_Bed_180x180;
FILE=K3_Bed_180x180.x_t;
DATE=Sun Jun 13 14:20:34 2021;
**PART2;
SCH=SCH_3101290_31100;
USFLD_SIZE=0;
**PART3;
**END_OF_HEADER*****************************************************************
T51 : TRANSMIT FILE created by modeller version 310129023 SCH_3101290_31100_1300
6222 0 12 34 CCCCCCI4 mesh1006 0 I8 polyline1008 0 CCCCCCCDI5 owner1040 0 CCCCCC
I13 boundary_mesh1006 0 I17 boundary_polyline1008 0 CCCA16 index_map_offset0 0 1
 dA9 index_map82 0 A17 node_id_index_map82 0 A20 schema_embedding_map82 0 A5 chi
ld12 0 A14 lowest_node_id0 0 1 dA16 mesh_offset_data206 0 Z1 855 2 3 0 0 0 0 0 0
 1e3 1e-8 0 4 0 1 0 1 1 5 6 7 8 0 0 9 10 11 0 0 0 0 0 0 0 81 255 2 2 832 12 1 13
 0 0 0 0 14 70 11 CI9 list_type0 0 1 uI10 notransmit0 0 1 lCCCDCCDI12 finger_ind
ex0 0 1 dI12 finger_block1012 0 CZ3 0 4 T1 0 0 9 20 1 15 15 13 255 5 94 0 1 0 16
 0 0 17 0 51 255 6 677 0 18 19 0 0 +.089 .00635 .089 0 -1 0 .001 0 0 -1 30 255 7
 584 0 10 20 0 0 +-.089 .00635 .09 0 -1 0 29 255 8 546 0 11 21 0 .09 .00635 -.08
9 19 8 CCCCCCCA5 owner12 0 Z9 28 0 1 17 0 22 V0 16 255 10 582 0 ?23 0 24 7 0 0 1
 18 255 11 544 0 25 0 26 8 ?1 17 255 25 0 27 28 29 11 30 31 0 32 +18 26 541 0 33
 11 34 21 ?1 17 33 0 35 32 36 26 37 38 0 28 +18 34 538 0 39 26 40 41 ?1 29 21 54
3 0 26 41 8 .09 .00635 .089 29 41 540 0 34 42 21 .089 .00635 .09 29 42 537 0 40
 43 41 -.089 .00635 .09 18 40 535 0 44 34 45 42 ?1 29 43 524 0 45 46 42 -.089 .0
0635 -.09 18 45 522 0 47 40 48 43 ?1 29 46 521 0 48 49 43 .089 .00635 -.09 18 48
 519 0 50 45 51 46 ?1 29 49 498 0 51 52 46 .089 0 .09 18 51 496 0 53 48 54 49 ?1
 29 52 495 0 54 55 49 -.089 0 .09 18 54 493 0 56 51 57 52 ?1 29 55 492 0 57 58 5
2 .09 0 -.089 18 57 490 0 59 54 60 55 ?1 29 58 489 0 60 61 55 .09 0 .089 18 60 4
87 0 62 57 63 58 ?1 29 61 486 0 63 64 58 -.089 0 -.09 18 63 484 0 65 60 66 61 ?1
 29 64 483 0 66 67 61 .089 0 -.09 18 66 481 0 68 63 69 64 ?1 29 67 470 0 69 70 6
4 -.09 .00635 .089 18 69 468 0 71 66 72 67 ?1 29 70 467 0 72 73 67 -.09 .00635 -
.089 18 72 465 0 74 69 75 70 ?1 29 73 464 0 75 76 70 -.09 0 .089 18 75 462 0 77
 72 78 73 ?1 29 76 461 0 78 0 73 -.09 0 -.089 18 78 459 0 79 75 0 76 ?1 17 79 0
 80 81 82 78 65 83 0 84 -15 255 80 603 0 85 86 0 17 81 0 80 85 79 72 84 87 0 0 -
17 82 0 80 79 85 63 47 88 0 0 -17 65 0 89 90 91 63 79 83 0 92 +16 83 514 0 ?65 9
3 94 95 0 0 1 17 84 0 96 97 98 78 81 87 0 91 +15 96 84 0 98 16 0 17 97 0 96 71 8
4 75 91 99 0 100 +17 98 0 96 84 71 72 101 102 0 81 -16 87 476 0 ?84 103 104 105
 0 0 1 17 91 0 89 65 77 78 97 99 0 0 -15 89 44 0 91 106 0 17 77 0 89 91 107 75 5
6 108 0 97 +16 99 460 0 ?97 109 110 111 0 0 1 16 109 494 0 ?112 113 99 114 0 0 1
 16 110 158 0 ?115 99 116 117 0 0 1 30 111 69 0 99 118 114 0 +-.09 0 -.09 154197
6423090495e-31 0 1 30 118 14 0 119 120 111 0 +.09 .00635 -.09 -1 0 1541976423090
495e-31 30 114 68 0 109 111 121 0 +.09 0 .09 1 0 -1541976423090495e-31 30 121 67
 0 113 114 122 0 +.09 0 -.09 -1541976423090495e-31 0 -1 16 113 488 0 ?29 123 109
 121 0 0 1 30 122 66 0 123 121 124 0 +.09 0 -.09 -1 0 1541976423090495e-31 16 12
3 482 0 ?92 102 113 122 0 0 1 31 255 124 352 0 125 122 126 0 +.08 .00635 .08 0 -
1 0 0 0 -1 .00151750218117732 16 125 359 0 ?127 128 129 124 0 0 1 31 126 403 0 1
30 124 131 0 +-.08 .00635 .08 0 -1 0 0 0 -1 .00151750218117732 16 130 410 0 ?132
 133 134 126 0 0 1 30 131 473 0 104 126 105 0 --.09 .00635 .089 0 -1 0 16 104 47
1 0 ?71 87 119 131 0 0 1 30 105 478 0 87 131 135 0 +-.09 .00635 -.089 0 -1 0 31
 135 501 0 103 105 136 0 +.089 0 .089 0 -1 0 0 0 -1 .001 16 103 499 0 ?53 108 87
 135 0 0 1 31 136 506 0 108 135 137 0 +-.089 0 .089 0 -1 0 0 0 -1 .001 16 108 50
4 0 ?77 94 103 136 0 0 1 31 137 511 0 94 136 95 0 +.089 0 -.089 0 -1 0 0 0 -1 .0
01 16 94 509 0 ?59 83 108 137 0 0 1 31 95 516 0 83 137 138 0 +-.089 0 -.089 0 -1
 0 0 0 -1 .001 30 138 527 0 93 95 139 0 +.089 .00635 -.09 0 -1 0 16 93 525 0 ?14
0 88 83 138 0 0 1 30 139 532 0 88 138 141 0 --.089 .00635 -.09 0 -1 0 16 88 530
 0 ?47 38 93 139 0 0 1 31 141 549 0 38 139 142 0 -.089 .00635 .089 0 -1 0 0 0 -1
 .001 16 38 547 0 ?33 143 88 141 0 0 1 31 142 554 0 143 141 144 0 --.089 .00635
 .089 0 -1 0 0 0 -1 .001 16 143 552 0 ?44 145 38 142 0 0 1 31 144 559 0 145 142
 146 0 -.089 .00635 -.089 0 -1 0 0 0 -1 .001 16 145 557 0 ?50 147 143 144 0 0 1
 31 146 564 0 147 144 148 0 --.089 .00635 -.089 0 -1 0 0 0 -1 .001 16 147 562 0
 ?74 149 145 146 0 0 1 30 148 569 0 149 146 150 0 +.09 .00635 .089 0 -1 0 16 149
 567 0 ?151 31 147 148 0 0 1 30 150 574 0 31 148 20 0 -.09 .00635 -.089 0 -1 0 1
6 31 572 0 ?25 24 149 150 0 0 1 30 20 579 0 24 150 7 0 -.089 .00635 .09 0 -1 0 1
6 24 577 0 ?39 10 31 20 0 0 1 17 39 0 152 153 112 34 154 24 0 36 +15 152 82 0 15
3 155 0 17 153 0 152 23 39 40 36 156 0 157 -17 112 0 152 39 23 51 107 109 0 154
 +17 154 0 158 62 37 51 39 24 0 0 -17 36 0 35 33 44 34 153 156 0 37 +15 35 3 0 1
59 160 0 17 44 0 35 36 101 40 161 143 0 153 +16 156 536 0 ?36 162 102 163 0 0 1
 17 37 0 158 154 164 34 33 38 0 0 -15 158 666 0 37 18 0 17 164 0 158 37 62 26 15
1 149 0 0 -17 62 0 158 164 154 60 53 103 0 151 -17 151 0 27 29 28 60 164 149 0 1
65 +15 27 80 0 29 166 0 17 29 0 27 25 151 57 165 113 0 30 +17 28 0 27 151 25 26
 32 162 0 164 -17 165 0 89 53 59 60 29 113 0 0 -17 53 0 89 107 165 51 62 103 0 1
12 +17 59 0 89 165 90 57 68 94 0 29 +17 90 0 89 59 65 66 92 123 0 0 -17 68 0 167
 168 30 66 59 94 0 140 -15 167 624 0 169 170 0 17 168 0 167 169 68 48 140 93 0 0
 -17 30 0 167 68 169 57 25 31 0 0 -17 140 0 171 92 172 66 168 93 0 90 +15 171 78
 0 92 173 0 17 92 0 171 47 140 63 90 123 0 82 +17 172 0 171 140 47 48 159 119 0
 168 -17 47 0 171 172 92 45 82 88 0 159 +17 159 0 35 74 50 45 172 119 0 85 +16 1
19 520 0 ?159 104 162 118 0 0 1 16 162 542 0 ?32 119 156 120 0 0 1 17 32 0 35 50
 33 11 28 162 0 169 +30 120 11 0 162 163 118 0 +.09 .00635 -.09 -154197642309049
5e-31 0 -1 30 163 8 0 156 174 120 0 +.09 .00635 .09 1 0 -1541976423090495e-31 30
 174 5 0 102 117 163 0 +-.09 .00635 -.09 1541976423090495e-31 0 1 16 102 466 0 ?
101 156 123 174 0 0 1 31 117 191 0 110 175 174 0 +0 0 .08 0 1 0 0 0 1 .0017 31 1
75 192 0 116 176 117 0 +0 .00335 .08 0 1 0 0 0 1 .0017 16 116 159 0 ?177 110 178
 175 0 0 1 31 176 193 0 178 179 175 0 +0 .00335 .08 0 1 0 0 0 1 .00325 16 178 16
0 0 ?180 116 181 176 0 0 1 31 179 194 0 181 182 176 0 +0 .00635 .08 0 1 0 0 0 1
 .00325 16 181 157 0 ?183 178 184 179 0 0 1 31 182 249 0 184 185 179 0 +.08 0 -.
08 0 1 0 0 0 1 .0017 16 184 216 0 ?186 181 187 182 0 0 1 31 185 250 0 187 188 18
2 0 +.08 .00335 -.08 0 1 0 0 0 1 .0017 16 187 217 0 ?189 184 190 185 0 0 1 31 18
8 251 0 190 191 185 0 +.08 .00335 -.08 0 1 0 0 0 1 .00325 16 190 218 0 ?192 187
 193 188 0 0 1 31 191 252 0 193 194 188 0 +.08 .00635 -.08 0 1 0 0 0 1 .00325 16
 193 215 0 ?195 190 196 191 0 0 1 31 194 307 0 196 197 191 0 +-.08 0 -.08 0 1 0
 0 0 1 .0017 16 196 274 0 ?198 193 199 194 0 0 1 31 197 308 0 199 200 194 0 +-.0
8 .00335 -.08 0 1 0 0 0 1 .0017 16 199 275 0 ?201 196 202 197 0 0 1 31 200 309 0
 202 203 197 0 +-.08 .00335 -.08 0 1 0 0 0 1 .00325 16 202 276 0 ?204 199 128 20
0 0 0 1 31 203 310 0 128 205 200 0 +-.08 .00635 -.08 0 1 0 0 0 1 .00325 16 128 2
73 0 ?206 202 125 203 0 0 1 31 205 387 0 129 207 203 0 +.08 .006 .08 0 -1 0 0 0
 -1 .0021 16 129 361 0 ?208 125 133 205 0 0 1 31 207 388 0 133 209 205 0 +.08 -1
29812560709619e-32 .08 0 -1 0 0 0 -1 .0021 16 133 360 0 ?210 129 130 207 0 0 1 3
1 209 438 0 134 211 207 0 +-.08 .006 .08 0 -1 0 0 0 -1 .0021 16 134 412 0 ?212 1
30 213 209 0 0 1 31 211 439 0 213 0 209 0 +-.08 -129812560709619e-32 .08 0 -1 0
 0 0 -1 .0021 16 213 411 0 ?214 134 0 211 0 0 1 17 214 0 215 214 214 0 216 213 0
 0 +15 215 432 0 214 217 0 17 216 0 218 216 216 0 214 213 0 0 -15 218 393 0 216
 106 219 14 255 106 43 220 ?221 160 218 5 222 +0 0 221 160 22 15 219 342 0 223 1
06 224 17 223 0 219 223 223 0 210 133 0 0 -15 224 256 0 198 106 225 17 198 0 224
 198 198 0 226 196 0 0 +15 225 198 0 186 106 227 17 186 0 225 186 186 0 228 184
 0 0 +15 227 140 0 115 106 89 17 115 0 227 115 115 0 229 110 0 0 +17 229 0 230 2
29 229 0 115 110 0 0 -15 230 172 0 229 221 231 14 221 169 232 ?233 106 230 5 234
 -0 0 233 106 22 15 231 173 0 177 221 0 17 177 0 231 177 177 0 235 116 0 0 +17 2
35 0 236 235 235 0 177 116 0 0 -15 236 177 0 235 233 237 14 233 174 238 ?239 221
 236 5 240 -0 0 239 221 22 15 237 178 0 180 233 0 17 180 0 237 180 180 0 241 178
 0 0 +17 241 0 242 241 241 0 180 178 0 0 -15 242 182 0 241 239 243 14 239 179 24
4 ?245 233 242 5 246 -0 0 245 233 22 15 243 183 0 183 239 0 17 183 0 243 183 183
 0 247 181 0 0 +17 247 0 248 247 247 0 183 181 0 0 -15 248 148 0 247 160 35 14 1
60 1 249 ?106 173 250 5 251 -0 0 106 173 22 81 1 249 837 252 160 253 0 244 254 2
55 14 173 79 254 ?160 166 171 5 256 -0 0 160 166 22 15 250 401 0 132 160 257 50
 255 251 2 0 160 234 222 0 +0 .00635 0 0 -1 0 0 0 -1 13 22 29 0 0 0 0 0 0 9 16 1
4 16 85 258 ?155 0 96 5 259 -0 0 155 0 22 81 1 258 839 252 16 260 0 254 261 262
 14 155 83 261 ?166 16 152 5 263 -0 0 166 16 22 50 259 89 0 16 263 264 0 +-.09 .
00635 -.09 1 0 -1541976423090495e-31 -1541976423090495e-31 0 -1 50 263 88 0 155
 265 259 0 +.09 .00635 .09 -1541976423090495e-31 0 -1 -1 0 1541976423090495e-31
 51 264 614 0 86 259 266 0 +-.089 .00635 -.089 0 -1 0 .001 0 0 -1 14 86 602 267
 ?170 217 80 5 264 +0 0 170 217 22 51 266 635 0 170 264 19 0 +.089 .00635 -.089
 0 -1 0 .001 0 0 -1 14 170 623 268 ?269 86 167 5 266 +0 0 269 86 22 51 19 656 0
 269 266 6 0 +-.089 .00635 .089 0 -1 0 .001 0 0 -1 14 269 644 270 ?18 170 271 5
 19 +0 0 18 170 22 81 1 270 843 252 269 272 0 268 273 274 14 18 665 273 ?0 269 1
58 5 6 +0 0 0 269 22 15 271 645 0 161 269 0 17 161 0 271 100 157 69 44 143 0 0 -
17 100 0 271 56 161 75 71 104 0 0 -17 157 0 271 161 56 40 23 10 0 0 -17 56 0 271
 157 100 54 77 108 0 23 -17 23 0 152 112 153 54 157 10 0 107 +17 107 0 89 77 53
 54 112 109 0 0 -17 71 0 96 98 97 69 100 104 0 101 +17 101 0 35 44 74 69 98 102
 0 161 +17 74 0 35 101 159 72 85 147 0 98 +17 85 0 80 82 81 45 74 147 0 0 -81 1
 273 844 252 18 275 0 270 276 277 80 255 1 252 278 279 9000 1 1 1 1 1 1 1 1 0 FF
FFTFTFFFFFFF1 81 1 275 783 280 18 0 273 272 0 281 81 1 276 845 252 166 282 0 273
 283 284 82 255 1 277 -1857289993 14 166 81 276 ?173 155 27 5 265 -0 0 173 155 2
2 81 1 282 763 280 166 0 276 285 286 287 81 1 283 846 252 217 288 0 276 289 290
 82 1 284 -523370249 14 217 428 283 ?86 291 292 5 293 -0 0 86 291 22 81 1 288 77
9 280 217 0 283 294 295 296 81 1 289 847 252 291 294 0 283 297 298 82 1 290 -189
2744970 14 291 414 289 ?217 299 300 5 301 -0 0 217 299 22 81 1 294 778 280 291 0
 289 302 288 303 81 1 297 848 252 299 302 0 289 304 305 82 1 298 -1867972362 14
 299 377 297 ?291 306 307 5 308 -0 0 291 306 22 81 1 302 777 280 299 0 297 309 2
94 310 81 1 304 849 252 306 309 0 297 311 312 82 1 305 -1876819722 14 306 363 30
4 ?299 313 314 5 315 -0 0 299 313 22 81 1 309 776 280 306 0 304 316 302 317 81 1
 311 850 252 313 316 0 304 318 319 82 1 312 -1870593802 14 313 295 311 ?306 320
 321 5 322 -0 0 306 320 22 81 1 316 775 280 313 0 311 323 309 324 81 1 318 851 2
52 320 323 0 311 325 326 82 1 319 473759985 14 320 290 318 ?313 327 328 5 329 -0
 0 313 327 22 81 1 323 774 280 320 0 318 330 316 331 81 1 325 852 252 327 330 0
 318 332 333 82 1 326 474349809 14 327 285 325 ?320 334 335 5 336 -0 0 320 334 2
2 81 1 330 773 280 327 0 325 337 323 338 81 1 332 853 252 334 337 0 325 339 340
 82 1 333 474939633 14 334 237 332 ?327 341 342 5 343 -0 0 327 341 22 81 1 337 7
72 280 334 0 332 344 330 345 81 1 339 854 252 341 344 0 332 346 347 82 1 340 495
714545 14 341 232 339 ?334 245 348 5 349 -0 0 334 245 22 81 1 344 771 280 341 0
 339 350 337 351 81 1 346 855 252 245 350 0 339 0 352 82 1 347 496304369 14 245
 227 346 ?341 239 353 5 354 -0 0 341 239 22 81 1 350 770 280 245 0 346 355 344 3
56 82 1 352 496894193 80 1 280 0 357 8001 0 0 0 0 3 5 0 0 0 FFFFTFTFFFFFFF2 81 1
 355 769 280 239 0 244 358 350 359 83 255 3 356 .866666666666667 .90980392156862
7 1 81 1 244 836 252 239 355 0 238 249 360 81 1 358 768 280 233 0 238 361 355 36
2 83 3 359 .866666666666667 .909803921568627 1 81 1 238 835 252 233 358 0 232 24
4 363 81 1 361 767 280 221 0 232 364 358 365 83 3 362 .866666666666667 .90980392
1568627 1 81 1 232 834 252 221 361 0 220 238 366 81 1 364 766 280 106 0 220 253
 361 367 83 3 365 .866666666666667 .909803921568627 1 81 1 220 833 252 106 364 0
 0 232 368 81 1 253 765 280 160 0 249 286 364 369 83 3 367 .866666666666667 .909
803921568627 1 81 1 286 764 280 173 0 254 282 253 370 83 3 369 .866666666666667
 .909803921568627 1 81 1 254 838 252 173 286 0 249 258 371 83 3 370 .86666666666
6667 .909803921568627 1 82 1 371 -526515977 82 1 368 -528350985 82 1 366 5187832
17 82 1 363 518193393 82 1 360 517603569 79 255 15 357 SDL/TYSA_COLOUR15 353 230
 0 228 245 372 51 354 246 0 245 349 246 0 +.08 .00635 -.08 0 1 0 .0017 0 0 1 50
 349 247 0 341 343 354 0 +.0817 .00335 -.08 0 -1 0 0 0 -1 51 246 190 0 239 354 2
40 0 +0 .00635 .08 0 1 0 .00325 0 0 1 50 240 189 0 233 246 234 0 +.0017 .00335 .
08 0 -1 0 0 0 -1 51 234 188 0 221 240 251 0 +0 .00635 .08 0 1 0 .0017 0 0 1 51 3
43 248 0 334 336 349 0 +.08 .00635 -.08 0 1 0 .00325 0 0 1 51 336 304 0 327 329
 343 0 +-.08 .00635 -.08 0 1 0 .0017 0 0 1 50 329 305 0 320 322 336 0 +-.0783 .0
0335 -.08 0 -1 0 0 0 -1 51 322 306 0 313 315 329 0 +-.08 .00635 -.08 0 1 0 .0032
5 0 0 1 52 255 315 385 0 306 308 322 0 +.08 .006 .08 0 -1 0 .0021 .8571673007021
13 .515038074910054 0 0 -1 51 308 386 0 299 301 315 0 +.08 0 .08 0 -1 0 .0021 0
 0 -1 52 301 436 0 291 293 308 0 +-.08 .006 .08 0 -1 0 .0021 .857167300702113 .5
15038074910054 0 0 -1 51 293 437 0 217 0 301 0 +-.08 0 .08 0 -1 0 .0021 0 0 -1 1
7 228 0 353 228 228 0 186 184 0 0 -15 372 231 0 189 245 0 17 189 0 372 189 189 0
 373 187 0 0 +17 373 0 348 373 373 0 189 187 0 0 -15 348 235 0 373 341 374 15 37
4 236 0 192 341 0 17 192 0 374 192 192 0 375 190 0 0 +17 375 0 342 375 375 0 192
 190 0 0 -15 342 240 0 375 334 376 15 376 241 0 195 334 0 17 195 0 376 195 195 0
 377 193 0 0 +17 377 0 378 377 377 0 195 193 0 0 -15 378 206 0 377 160 248 83 3
 351 .866666666666667 .909803921568627 1 83 3 345 .866666666666667 .909803921568
627 1 83 3 338 .866666666666667 .909803921568627 1 15 335 288 0 226 327 379 17 2
26 0 335 226 226 0 198 196 0 0 -15 379 289 0 201 327 0 17 201 0 379 201 201 0 38
0 199 0 0 +17 380 0 328 380 380 0 201 199 0 0 -15 328 293 0 380 320 381 15 381 2
94 0 204 320 0 17 204 0 381 204 204 0 382 202 0 0 +17 382 0 321 382 382 0 204 20
2 0 0 -15 321 298 0 382 313 383 15 383 299 0 206 313 0 17 206 0 383 206 206 0 38
4 128 0 0 +17 384 0 385 384 384 0 206 128 0 0 -15 385 264 0 384 160 378 83 3 331
 .866666666666667 .909803921568627 1 83 3 324 .866666666666667 .909803921568627
 1 83 3 317 .866666666666667 .909803921568627 1 15 314 366 0 208 306 386 17 208
 0 314 208 208 0 387 129 0 0 +15 386 367 0 388 306 0 17 388 0 386 388 388 0 127
 125 0 0 -17 127 0 257 127 127 0 388 125 0 0 +15 257 350 0 127 160 385 17 387 0
 307 387 387 0 208 129 0 0 -15 307 380 0 387 299 389 15 389 381 0 210 299 0 17 2
10 0 389 210 210 0 223 133 0 0 +83 3 310 .898039215686275 .917647058823529 .9294
11764705882 83 3 303 .866666666666667 .909803921568627 1 15 300 417 0 212 291 39
0 17 212 0 300 212 212 0 391 134 0 0 +15 390 418 0 392 291 0 17 392 0 390 392 39
2 0 132 130 0 0 -17 132 0 250 132 132 0 392 130 0 0 +17 391 0 292 391 391 0 212
 134 0 0 -15 292 431 0 391 217 215 81 1 295 780 280 86 0 267 288 393 394 83 3 29
6 .898039215686275 .917647058823529 .929411764705882 81 1 267 841 252 86 295 0 2
61 268 395 81 1 393 781 280 170 0 268 295 272 396 83 3 394 .866666666666667 .909
803921568627 1 81 1 268 842 252 170 393 0 267 270 397 81 1 272 782 280 269 0 270
 393 275 398 83 3 396 .866666666666667 .909803921568627 1 83 3 398 .866666666666
667 .909803921568627 1 82 1 397 -1861222153 81 1 261 840 252 155 285 0 258 267 3
99 82 1 395 -1863188233 81 1 285 762 280 155 0 261 260 282 400 82 1 399 -5261227
61 81 1 260 761 280 16 0 258 0 285 401 83 3 400 .866666666666667 .90980392156862
7 1 83 3 401 .866666666666667 .909803921568627 1 83 3 287 .866666666666667 .9098
03921568627 1 50 265 87 0 166 256 263 0 +.09 .00635 -.09 -1 0 1541976423090495e-
31 1541976423090495e-31 0 1 50 256 86 0 173 222 265 0 +.09 .00635 -.09 154197642
3090495e-31 0 1 1 0 -1541976423090495e-31 50 222 65 0 106 251 256 0 +0 0 0 0 -1
 0 0 0 -1 83 3 281 .866666666666667 .909803921568627 1 79 14 279 SWEntUnchanged8
2 1 274 -1859256073 82 1 262 -526253833 82 1 255 -526647049 17 50 0 35 159 32 48
 169 145 0 172 +17 169 0 167 30 168 11 50 145 0 0 -19 17 95 0 1 0 9 5 S0 74 4 CI
16 index_map_offset0 0 1 dCCZ20 15 9 0 0 402 403 346 404 405 406 275 13 2 0 0 0
 0 0 0 0 0 0 0 0 81 2 402 119 407 1 0 403 0 0 0 408 81 2 403 123 409 1 402 404 0
 0 0 410 81 1 404 701 411 1 403 405 0 0 412 81 2 405 729 413 1 404 406 0 0 0 414
 81 2 406 760 415 1 405 13 0 0 0 0 81 2 13 831 416 1 406 2 0 0 417 0 80 2 416 41
8 419 8004 0 0 0 0 3 5 0 0 0 FFTFFFFFFFFFFF2 3 83 1 417 2680 79 16 419 SDL/TYSA_
DENSITY80 2 415 420 421 9000 0 0 0 0 3 5 0 0 0 FFTFFFFFFFFFFF9 1 79 16 421 BODY_
RECIPE_200180 2 413 422 423 9000 0 0 0 0 3 5 0 0 0 FFTFFFFFFFFFFF9 1 82 1 414 1
 79 24 423 BODY_IN_LIGHTWEIGHT_PERM80 1 411 424 425 9000 1 1 1 1 1 1 1 1 0 FFTFF
FFFFFFFFF1 82 1 412 15720397 79 10 425 BODY_MATCH80 2 409 426 427 9000 0 0 0 0 3
 5 0 0 0 FFTFFFFFFFFFFF9 1 82 1 410 118 79 30 427 LAST_BODY_MODIFYING_FEATURE_ID
80 2 407 428 429 9000 0 0 0 0 3 5 0 0 0 FFTFFFFFFFFFFT9 1 82 1 408 425 79 19 429
 ENT_TIME_STAMP_200180 2 12 430 431 9000 0 0 0 0 3 5 0 0 0 FFTFFFFFFFFFFF9 1 82
 1 14 105 79 12 431 ATOM_ID_20011 0 
